<svg xmlns="http://www.w3.org/2000/svg" viewBox="0 0 280.08 279.96"><defs><style>.cls-1{fill:#295965;}.cls-2{fill:#00b5a5;}</style></defs><g id="Camada_2" data-name="Camada 2"><g id="audit"><g id="audit-2" data-name="audit"><path class="cls-1" d="M261.06,80v0h-41V59h0V42.4L177.66,0l0,0,0,0H160.08V0h-120V20H20v0H0V280H200.08V240h20V200h60V80Zm-81-49.26L189.34,40h-9.26Zm0,229.24H20V40H40.08V220h.07v20H180.08Zm20-40h-140V20h100V60h40V80h-40V200h40Zm-20-40V100h80v80Z"/><rect class="cls-2" x="80.08" y="50.13" width="60" height="20"/><rect class="cls-2" x="80.08" y="90.21" width="50" height="20"/><rect class="cls-2" x="80.08" y="130.3" width="50" height="20"/><rect class="cls-2" x="80.08" y="170.38" width="50" height="20"/><polygon class="cls-2" points="245.07 129.94 235.08 119.95 215.05 139.99 205.07 130.01 195.08 139.99 215.06 159.95 245.07 129.94"/></g></g></g></svg>