<svg width="44" height="55" viewBox="0 0 44 55" fill="none" xmlns="http://www.w3.org/2000/svg">
<path d="M43.2143 8.32857L34.8975 0H7.87286V3.92857H3.92857H0V55H39.3014V47.1429H43.23L43.2143 8.32857ZM35.3571 6.03429L37.1918 7.85714H35.3729L35.3571 6.03429ZM35.3571 51.0636H3.92857V7.85714H7.87286L7.88661 47.1429H35.3729L35.3571 51.0636ZM39.2857 43.2064H11.7857V3.92857H31.4286V11.7857H39.2857V43.2064Z" fill="#295965"/>
<path d="M27.5157 9.84692H15.73V13.7755H27.5157V9.84692Z" fill="#00B5A5"/>
<path d="M29.4721 17.7198H15.73V21.6484H29.4721V17.7198Z" fill="#00B5A5"/>
<path d="M35.373 17.7198H31.4365V21.6484H35.373V17.7198Z" fill="#00B5A5"/>
<path d="M19.6507 25.5946H15.73V29.5232H19.6507V25.5946Z" fill="#00B5A5"/>
<path d="M35.365 25.5946H21.615V29.5232H35.365V25.5946Z" fill="#00B5A5"/>
<path d="M35.365 33.4675H15.73V37.3961H35.365V33.4675Z" fill="#00B5A5"/>
</svg>
