<svg xmlns="http://www.w3.org/2000/svg" viewBox="0 0 220.08 279.96"><defs><style>.cls-1{fill:#295965;}.cls-2{fill:#00b5a5;}</style></defs><g id="Camada_2" data-name="Camada 2"><g id="bank_slip" data-name="bank slip"><g id="bank_slip-2" data-name="bank slip"><path class="cls-1" d="M220,42.4,177.66,0l0,0,0,0L40.08,0V20H20v0H0V280H200.08V240h20Zm-40-11.68L189.34,40h-9.26Zm0,229.24H20V40H40.08L40.15,240H180.08Zm20-40h-140V20h100V60h40Z"/><rect class="cls-2" x="80.08" y="50.13" width="60" height="20"/><rect class="cls-2" x="80.08" y="90.21" width="69.96" height="20"/><rect class="cls-2" x="160.04" y="90.21" width="20.04" height="20"/><rect class="cls-2" x="80.08" y="130.3" width="19.96" height="20"/><rect class="cls-2" x="110.04" y="130.3" width="70" height="20"/><rect class="cls-2" x="80.08" y="170.38" width="99.96" height="20"/></g></g></g></svg>