<svg xmlns="http://www.w3.org/2000/svg" viewBox="0 0 280 280.01"><defs><style>.cls-1{fill:#295965;}.cls-2{fill:#00b5a5;}</style></defs><g id="Camada_2" data-name="Camada 2"><g id="clients"><g id="clients-2" data-name="clients"><path class="cls-1" d="M110.32,222.07a106,106,0,0,1-13.75-7.59q-3.81-2.47-7.38-5.28a97.7,97.7,0,0,1-7.5-6.45c-1.53-1.42-3-2.9-4.44-4.43a102.19,102.19,0,0,1-6.83-8c-1.72-2.22-3.36-4.51-4.89-6.88a103.94,103.94,0,0,1-7.59-13.72q-1.26-2.76-2.37-5.59H35.06c1.07,3.27,2.25,6.49,3.57,9.63q2.05,5,4.53,9.68a125.61,125.61,0,0,0,12.43,19.31l1.08,1.34-18,18-.06.06L19.39,241.38l-.08.08L.09,260.69l-.09.09L19.31,280l19.07-19.32.25-.25,18.81-19.06.5-.51L75.53,223c.57.47,1.14.92,1.72,1.37a124.75,124.75,0,0,0,19.32,12.44c3.15,1.64,6.39,3.16,9.69,4.54q4.72,2,9.62,3.54v-20.5C114,223.7,112.14,222.91,110.32,222.07ZM57.94,202.81v-.06H58Z"/><path class="cls-1" d="M280,125.5v0a126.22,126.22,0,0,1-1.48,19.27,123.84,123.84,0,0,1-4.59,19.32c-1.05,3.26-2.23,6.47-3.54,9.6q-2.07,5-4.55,9.71a124.19,124.19,0,0,1-12.44,19.31c-.76,1-1.54,1.94-2.33,2.9a127.92,127.92,0,0,1-16.41,16.42c-1,.78-1.92,1.56-2.9,2.32V198.31a106.31,106.31,0,0,0,19.31-28.62c.85-1.83,1.63-3.68,2.36-5.56a104.42,104.42,0,0,0,5.5-19.32,106.41,106.41,0,0,0,1.75-19.27v0a107.35,107.35,0,0,0-1.74-19.28,105.87,105.87,0,0,0-5.49-19.31H274a122.82,122.82,0,0,1,4.57,19.31A126.25,126.25,0,0,1,280,125.5Z"/><path class="cls-2" d="M265.87,67.6H243.51a104.53,104.53,0,0,0-11.75-14.92c-1.41-1.52-2.88-3-4.39-4.4a104.6,104.6,0,0,0-14.92-11.76A103.5,103.5,0,0,0,198.8,29c-1.86-.86-3.74-1.66-5.67-2.4a104.32,104.32,0,0,0-19.31-5.5V1.48a124.54,124.54,0,0,1,19.31,4.57c3.32,1.08,6.56,2.27,9.74,3.61s6.46,2.86,9.58,4.49a124.92,124.92,0,0,1,19.31,12.44c1,.78,2,1.58,3,2.38a126.44,126.44,0,0,1,16.35,16.37c.81,1,1.6,1.95,2.37,2.94A125.92,125.92,0,0,1,265.87,67.6Z"/><path class="cls-1" d="M154.51,0V19.31a106,106,0,0,0-19.32,1.76,104.32,104.32,0,0,0-19.31,5.5c-1.92.74-3.8,1.54-5.67,2.4a103.84,103.84,0,0,0-13.64,7.54A104.9,104.9,0,0,0,81.64,48.28H55.56c.78-1,1.57-2,2.38-3A126.36,126.36,0,0,1,74.29,29c1-.81,2-1.6,3-2.39A124.7,124.7,0,0,1,96.57,14.15c3.12-1.63,6.3-3.13,9.57-4.49s6.43-2.53,9.74-3.61a125.89,125.89,0,0,1,38.63-6Z"/><path class="cls-2" d="M212.45,214.47v22.36q-4.74,2.47-9.71,4.55-4.71,2-9.61,3.54a123.45,123.45,0,0,1-19.31,4.59,126.78,126.78,0,0,1-38.63,0V229.92a107.47,107.47,0,0,0,38.63,0,104.32,104.32,0,0,0,19.31-5.5c1.89-.73,3.74-1.51,5.57-2.35A105.52,105.52,0,0,0,212.45,214.47Z"/><path class="cls-2" d="M65.49,67.6a104.38,104.38,0,0,0-7.55,13.68q-1.27,2.77-2.38,5.63a105.08,105.08,0,0,0-5.49,19.31,106.44,106.44,0,0,0-1.75,19.28v0a106.41,106.41,0,0,0,1.76,19.27H30.49A125,125,0,0,1,29,125.54v0a126.67,126.67,0,0,1,6-38.59c1.08-3.29,2.26-6.52,3.59-9.69s2.86-6.49,4.5-9.62Z"/><path class="cls-1" d="M239.26,106.22a85.28,85.28,0,0,0-6.87-19.31c-.2-.42-.41-.84-.63-1.25A86.35,86.35,0,0,0,219.31,67.6a82.36,82.36,0,0,0-6.86-6.87,86.55,86.55,0,0,0-18-12.45l-1.31-.65a85.47,85.47,0,0,0-19.31-6.89,87.84,87.84,0,0,0-38.63,0,85.47,85.47,0,0,0-19.31,6.89c-.45.21-.88.43-1.31.65a87,87,0,0,0-18,12.44A84,84,0,0,0,89.7,67.6a86,86,0,0,0-12.45,18c-.22.42-.43.84-.64,1.27a85.77,85.77,0,0,0-6.87,19.31,87.43,87.43,0,0,0-2.15,19.28v0a86.82,86.82,0,0,0,2.16,19.27,85.7,85.7,0,0,0,6.88,19.32c.21.41.41.82.62,1.22a87.11,87.11,0,0,0,37.41,37.4c.41.22.81.42,1.22.62a85.44,85.44,0,0,0,19.31,6.88,87.44,87.44,0,0,0,38.63,0,85.47,85.47,0,0,0,19.31-6.89c.41-.19.81-.39,1.21-.61a87.28,87.28,0,0,0,37.42-37.42c.21-.39.41-.8.61-1.2a85.21,85.21,0,0,0,6.88-19.32,86.23,86.23,0,0,0,2.17-19.27v0A86.84,86.84,0,0,0,239.26,106.22Zm-16.48,19.32a67.86,67.86,0,0,1-10.33,36.07c-.54.85-1.08,1.69-1.66,2.52a68.17,68.17,0,0,1-17.66,17.66c-.82.58-1.66,1.12-2.51,1.65a68.16,68.16,0,0,1-72.23,0c-.85-.53-1.69-1.07-2.51-1.65A68.25,68.25,0,0,1,98.2,164.13c-.57-.83-1.11-1.66-1.64-2.5A67.73,67.73,0,0,1,89,144.81a68.47,68.47,0,0,1-2.77-19.27v0A68.59,68.59,0,0,1,89,106.22a67.83,67.83,0,0,1,7.58-16.86c.52-.83,1.06-1.65,1.61-2.45a68.44,68.44,0,0,1,17.71-17.72c.79-.55,1.6-1.08,2.42-1.59A67.24,67.24,0,0,1,135.19,60a68.21,68.21,0,0,1,55.52,7.61c.82.51,1.63,1,2.42,1.59a68.21,68.21,0,0,1,17.69,17.72c.56.81,1.1,1.63,1.63,2.47a67.91,67.91,0,0,1,10.33,36.12Z"/><rect class="cls-2" x="144.84" y="91.38" width="19.31" height="19.31"/><rect class="cls-2" x="144.84" y="140.31" width="19.31" height="19.31"/><rect class="cls-2" x="125.54" y="120.99" width="57.94" height="19.31"/></g></g></g></svg>