<svg xmlns="http://www.w3.org/2000/svg" viewBox="0 0 280 279.96"><defs><style>.cls-1{fill:#295965;}.cls-2{fill:#00b5a5;}</style></defs><g id="Camada_2" data-name="Camada 2"><g id="compliance"><g id="compliance-2" data-name="compliance"><path class="cls-1" d="M180,30.72,189.26,40H180ZM220,280V240h60V120H261v0H220V59h0V42.4L177.58,0l0,0,0,0H160V0H0L.07,280Zm-20-20H20V20H160V60h40v60H160V240h40Zm-20-40V140h80v80Z"/><rect class="cls-2" x="40" y="50.03" width="100" height="20"/><rect class="cls-2" x="40" y="90.12" width="50" height="20"/><rect class="cls-2" x="100" y="90.12" width="40" height="20"/><rect class="cls-2" x="70" y="170.29" width="70" height="20"/><rect class="cls-2" x="40" y="170.29" width="20.09" height="20"/><rect class="cls-2" x="40" y="130.2" width="70" height="20"/><rect class="cls-2" x="119.91" y="130.2" width="20.09" height="20"/><rect class="cls-2" x="40" y="209.93" width="100" height="20"/><polygon class="cls-2" points="244.99 169.94 235 159.96 214.97 179.99 204.99 170.01 195 180 214.98 199.96 244.99 169.94"/></g></g></g></svg>