<svg xmlns="http://www.w3.org/2000/svg" viewBox="0 0 280.03 279.96"><defs><style>.cls-1{fill:#00b5a5;}.cls-2{fill:#295965;}</style></defs><g id="Camada_2" data-name="Camada 2"><g id="docs"><g id="docs-2" data-name="docs"><polygon class="cls-1" points="100.03 39.89 40 39.89 40 39.83 20 39.83 20 39.89 19.97 39.89 19.97 59.89 20 59.89 20 119.89 40 119.89 40 59.89 100.03 59.89 100.03 39.89"/><polygon class="cls-1" points="260.08 219.99 260.05 219.99 260.05 159.99 240.05 159.99 240.05 219.99 180.02 219.99 180.02 239.99 240.05 239.99 240.05 240.06 260.05 240.06 260.05 239.99 260.08 239.99 260.08 219.99"/><rect class="cls-1" x="40" y="179.89" width="20" height="20.13" transform="translate(239.96 139.96) rotate(90)"/><path class="cls-2" d="M139.89,200v-17.6l-2.53-2.53L100.07,142.6l-2.6-2.6H80v0H0V280H140V200Zm-30.82-20.13h-9v-9ZM120,260H20V160H79.94V200H120Z"/><path class="cls-2" d="M140,60.06V140H280V0H200V0H182.56L180,2.64,142.67,39.93l-2.53,2.53v17.6ZM180,30.93v9h-9ZM160,60.06h40.06V20H260V120H160Z"/><rect class="cls-1" x="59.97" y="199.92" width="20" height="60.07" transform="translate(299.93 159.99) rotate(90)"/><rect class="cls-1" x="220" y="39.83" width="20" height="20.13" transform="translate(279.89 -180.11) rotate(90)"/><rect class="cls-1" x="200.03" y="59.86" width="20" height="60.07" transform="translate(299.93 -120.14) rotate(90)"/></g></g></g></svg>