<svg xmlns="http://www.w3.org/2000/svg" viewBox="0 0 280.08 279.96"><defs><style>.cls-1{fill:#295965;}.cls-2{fill:#00b5a5;}</style></defs><g id="Camada_2" data-name="Camada 2"><g id="integration"><g id="integration-2" data-name="integration"><path class="cls-1" d="M280.06,60h0V0H219.92V20H140.08V80h-40v0h-20v40h-40V60H60.15V0H0V60H20.08v80h60v60h40v40H60.15V220H0v60H60.15V260h79.93V200h60V160h40v60H219.92v60h60.16V220h-20V140h-60V80h-20v0h-20V40h59.84V60h60.14ZM239.92,20h20.16V40H239.92ZM20,40V20H40.15V40ZM40.15,260H20V240H40.15Zm219.93-20v20H239.92V240Zm-80-60h-80V100h80Z"/><polygon class="cls-2" points="120.08 119.96 120.08 139.96 120.08 159.96 160.08 159.96 160.08 139.96 160.08 119.96 120.08 119.96"/></g></g></g></svg>