<svg xmlns="http://www.w3.org/2000/svg" viewBox="0 0 280 260.18"><defs><style>.cls-1{fill:#295965;}.cls-2{fill:#00b5a5;}</style></defs><g id="Camada_2" data-name="Camada 2"><g id="middle_office" data-name="middle office"><g id="middle_office-2" data-name="middle office"><path class="cls-1" d="M259.51,59.75,140,0,20.23,59.89l-20,10L60.09,99.82l20.13,10.06,40,20L140,139.77l19.79-9.89,100-50h0l20-10Zm-59.73,30-20,10-39.82,20L100.18,99.86l-20.09-10L40.45,70,140,20l99.55,49.77Z"/><polygon class="cls-1" points="280 189.98 280 190.18 260.2 200.08 140 260.18 20.06 200.21 0 190.18 0 189.98 19.8 180.08 60.11 159.93 80.24 169.99 40.01 190.19 140 240.18 239.99 189.97 199.89 169.93 219.89 159.93 259.94 179.95 280 189.98"/><polygon class="cls-2" points="280 129.86 280 129.87 260.01 139.87 199.89 169.93 140 199.87 80.24 169.99 60.11 159.93 20.25 139.99 0 129.87 0 129.86 19.99 119.87 60.09 99.82 80.22 109.88 40.2 129.97 80.11 149.93 80.12 149.93 100.2 159.97 140 179.87 179.8 159.88 199.76 149.86 239.79 129.75 199.91 109.82 219.91 99.82 259.74 119.73 280 129.86"/></g></g></g></svg>