<svg width="150" height="62" xmlns="http://www.w3.org/2000/svg"><g fill="#FFF"><path d="M4.266 59.463a6.69 6.69 0 002.634-.53v.93a7.59 7.59 0 01-2.734.511C1.402 60.374 0 58.822 0 55.768s1.402-4.616 4.156-4.616a7.37 7.37 0 012.734.52v.942a6.69 6.69 0 00-2.624-.541c-2.263 0-3.265 1.151-3.265 3.695 0 2.544 1.002 3.695 3.265 3.695zm17.764-3.695c0 3.004-1.401 4.606-4.165 4.606-2.764 0-4.166-1.552-4.166-4.606s1.402-4.616 4.166-4.616c2.764 0 4.166 1.552 4.166 4.616zm-1 0c0-2.544-1.002-3.695-3.205-3.695-2.203 0-3.195 1.151-3.195 3.695 0 2.544 1.002 3.695 3.195 3.695 2.193 0 3.204-1.131 3.204-3.695zm16.603-4.486v9.012H36.63v-7.43l-3.174 4.586-3.165-4.586v7.4H29.29v-9.012h1.001l3.085 4.566 3.104-4.566h1.001zm15.061 0v5.297c0 2.454-1.292 3.805-3.655 3.805-2.364 0-3.656-1.351-3.656-3.795v-5.307h1.002v5.357c0 1.923.871 2.854 2.674 2.854 1.802 0 2.673-.921 2.673-2.854v-5.357zm15.121 0v9.012h-1.082l-5.377-7.57v7.57h-1.002v-9.012h1.102l5.367 7.57v-7.57zm8.832 0v9.012h-1.001v-9.012zm11.596 8.181a6.71 6.71 0 002.634-.53v.93a7.61 7.61 0 01-2.744.511c-2.764 0-4.156-1.552-4.156-4.606s1.392-4.616 4.156-4.616a7.38 7.38 0 012.744.52v.942a6.71 6.71 0 00-2.634-.541c-2.273 0-3.294 1.151-3.294 3.695 0 2.544 1.021 3.695 3.294 3.695zm17.345.801h-1.002l-1.071-2.794h-3.926l-1.071 2.794h-1.002l3.575-9.012h1.002zm-2.444-3.735l-1.562-4.106-1.592 4.106zm9.934-.791c0 2.564 1.001 3.685 3.295 3.685a6.87 6.87 0 002.633-.52v.92a7.57 7.57 0 01-2.343.511l-.831 1.522h-1.001l1.071-1.522c-2.503-.15-3.785-1.682-3.785-4.596s1.402-4.607 4.166-4.607a7.39 7.39 0 012.743.511v.921a6.7 6.7 0 00-2.633-.52c-2.283.03-3.315 1.151-3.315 3.695zm20.469 4.526h-1.002l-1.081-2.794h-3.876l-1.081 2.794h-1.002l3.585-9.012h1.002zm-2.003-10.014c-1.372 1.713-2.744-1.442-4.096.27v-.8c1.362-1.713 2.724 1.432 4.096-.28zm-.48 6.289l-1.583-4.106-1.572 4.106zm17.343-.771c0 3.004-1.391 4.606-4.175 4.606s-4.156-1.552-4.156-4.606 1.402-4.616 4.156-4.616c2.753 0 4.175 1.552 4.175 4.616zm-1 0c0-2.544-1.002-3.695-3.205-3.695-2.203 0-3.185 1.151-3.185 3.695 0 2.544 1.002 3.695 3.185 3.695s3.234-1.131 3.234-3.695zM44.192 42.069l3.224-6.66 3.255 6.66h-6.48zM87.012 0l-14.64 30.222L57.6 0h29.41zm7.019 42.069l3.225-6.66 3.245 6.66h-6.47zm-93.721 0h9.544V25.335h12.688v-9.062H9.854v-7.1h12.688V0H.31v42.069zM150 0h-27.68v9.273h13.539L122.32 42.069H150v-9.063h-13.62L150 0z"/><path d="M67.815 42.069L47.436 0 27.048 42.069h10.194l10.194-21.04 10.185 21.04h10.194zm49.829 0L97.266 0 76.887 42.069h10.185l10.194-21.04 10.194 21.04h10.184z"/></g></svg>