<?xml version="1.0" standalone="no"?>
<!DOCTYPE svg PUBLIC "-//W3C//DTD SVG 20010904//EN"
 "http://www.w3.org/TR/2001/REC-SVG-20010904/DTD/svg10.dtd">
<svg version="1.0" xmlns="http://www.w3.org/2000/svg"
 width="228.000000pt" height="228.000000pt" viewBox="0 0 228.000000 228.000000"
 preserveAspectRatio="xMidYMid meet">
<metadata>
Created by potrace 1.11, written by Peter Selinger 2001-2013
</metadata>
<g transform="translate(0.000000,228.000000) scale(0.100000,-0.100000)"
fill="#000000" stroke="none">
<path d="M180 2273 c0 -4 122 -129 270 -278 l270 -270 -175 -175 -175 -175 0
-687 0 -688 180 0 180 0 -2 1138 -3 1137 -272 3 c-150 1 -273 -1 -273 -5z"/>
<path d="M1302 2017 l-172 -172 0 -630 c0 -396 4 -663 11 -720 35 -288 159
-439 393 -482 87 -16 220 -12 304 8 63 16 177 69 229 107 l42 31 -50 123 c-28
68 -55 133 -60 145 -8 23 -9 23 -64 -16 -107 -75 -239 -90 -330 -36 -35 20
-51 39 -77 92 l-33 68 -3 324 -3 325 273 273 273 273 -273 0 -272 0 0 230 c0
127 -3 230 -8 230 -4 0 -85 -78 -180 -173z"/>
</g>
</svg>
