<svg width="211" height="60" viewBox="0 0 211 60" fill="none" xmlns="http://www.w3.org/2000/svg">
<path d="M0 50.751L15.9645 9.68286H23.1254L39.0899 50.7655H31.9869L28.2271 41.0219H10.8599L7.10016 50.7655L0 50.751ZM19.545 18.5299L13.3819 34.5522H25.7081L19.545 18.5299Z" fill="#295965"/>
<path d="M55.7573 22.226C56.5343 22.231 57.3091 22.3104 58.071 22.4631C58.6976 22.5741 59.3153 22.7307 59.919 22.9316L60.564 23.1081L58.0999 29.4447C57.0486 28.9765 55.9038 28.7558 54.7537 28.7998C53.5444 28.7889 52.3559 29.1143 51.3208 29.7397C50.4653 30.2065 49.7159 30.8457 49.1199 31.6167L48.5414 32.5566V50.751H41.4962V22.9316H48.1857V26.9806C48.2638 26.8649 48.3621 26.6914 48.4749 26.4832C48.7298 26.0729 49.0201 25.6858 49.3426 25.3263C49.7917 24.7948 50.2936 24.3103 50.8407 23.8803C51.4878 23.3992 52.1982 23.0099 52.9519 22.7234C53.8462 22.3783 54.7988 22.2093 55.7573 22.226Z" fill="#295965"/>
<path d="M74.8916 44.8828C75.7459 44.8887 76.5964 44.7698 77.4164 44.53C78.0984 44.3397 78.7499 44.0534 79.3512 43.6797C79.8219 43.3758 80.273 43.0425 80.7018 42.6819C81.0122 42.4351 81.2884 42.1482 81.5232 41.8287L81.7575 41.4788L86.3849 46.1727C86.2692 46.3288 86.113 46.5255 85.9163 46.7511C85.4793 47.2063 85.0084 47.6278 84.5079 48.0121C83.7714 48.6144 82.9858 49.1542 82.1595 49.6259C81.1472 50.1728 80.0734 50.597 78.9608 50.8897C77.6336 51.2623 76.2613 51.4491 74.8829 51.445C70.6951 51.445 67.1542 50.0269 64.2601 47.1907C62.8582 45.8591 61.7486 44.2505 61.0018 42.467C60.255 40.6836 59.8872 38.7643 59.9219 36.8311C59.9219 32.7243 61.368 29.2615 64.2601 26.4426C67.1522 23.6238 70.6932 22.2153 74.8829 22.2172C76.9969 22.2013 79.0893 22.6422 81.0171 23.51C82.9143 24.3718 84.2543 25.2327 85.0371 26.0927L86.2778 27.397L81.4046 31.7352C81.1917 31.4353 80.9463 31.1599 80.6729 30.9138C80.3413 30.6015 79.6077 30.1706 78.472 29.6211C77.3565 29.0786 76.132 28.7976 74.8916 28.7997C72.5779 28.7997 70.6999 29.5825 69.2577 31.1481C67.8586 32.7144 67.0853 34.7411 67.0853 36.8412C67.0853 38.9414 67.8586 40.9681 69.2577 42.5344C70.7038 44.0981 72.5817 44.8809 74.8916 44.8828Z" fill="#295965"/>
<path d="M91.9405 26.4513C94.8114 23.6344 98.3234 22.226 102.477 22.226C106.63 22.226 110.144 23.6344 113.021 26.4513C115.9 29.2721 117.338 32.735 117.336 36.8399C117.371 38.7709 117.005 40.6882 116.263 42.4711C115.52 44.254 114.416 45.8639 113.021 47.1994C110.129 50.0376 106.614 51.4557 102.477 51.4538C98.3389 51.4518 94.8268 50.0337 91.9405 47.1994C90.5458 45.8636 89.4424 44.2536 88.6999 42.4708C87.9573 40.688 87.5915 38.7708 87.6255 36.8399C87.6255 32.733 89.0638 29.2702 91.9405 26.4513ZM96.9005 42.5344C98.3099 44.0981 100.169 44.8809 102.477 44.8829C104.784 44.8848 106.643 44.102 108.053 42.5344C109.459 40.976 110.214 38.9382 110.164 36.8399C110.214 34.7425 109.458 32.7057 108.053 31.1482C106.643 29.5845 104.784 28.8017 102.477 28.7997C100.169 28.7978 98.3099 29.5835 96.9005 31.1568C95.5015 32.7141 94.7504 34.7471 94.8008 36.8399C94.7474 38.9366 95.4987 40.9742 96.9005 42.5344Z" fill="#295965"/>
<path d="M153.771 9.22587V50.7741L210.818 60V0L153.771 9.22587Z" fill="#295965"/>
<path d="M175.922 12.5779V20.9911L167.494 12.5779H175.922Z" fill="#00B4A4"/>
<path d="M187.546 20.9968H195.959L187.546 29.4187V20.9968Z" fill="#00B4A4"/>
<path d="M170.534 26.3791V47.425H175.922V20.9968L170.534 26.3791Z" fill="white"/>
<path d="M194.75 41.0884C193.771 41.8732 192.554 42.3025 191.3 42.306C188.801 42.306 187.586 40.5331 187.586 36.8861V13.7665L182.201 19.1545V37.3113C182.201 44.2119 184.769 47.4337 190.284 47.4337C192.821 47.4337 195.004 46.7107 196.774 45.282L197.098 45.0217L195.334 40.6459L194.75 41.0884Z" fill="white"/>
<path d="M135.58 22.3735C136.905 22.3492 138.222 22.5871 139.455 23.0735C140.688 23.5599 141.812 24.2852 142.764 25.2078C144.748 27.0954 145.74 29.6356 145.74 32.8285V50.7597H138.741V34.5783C138.741 32.6714 138.235 31.2504 137.223 30.3153C136.21 29.3802 134.891 28.9136 133.266 28.9155C132.605 28.9154 131.949 29.0441 131.337 29.2944C130.775 29.5124 130.245 29.8042 129.761 30.162C129.36 30.4672 128.988 30.809 128.65 31.1829C128.402 31.4455 128.187 31.7367 128.008 32.0506L127.777 32.4584V50.7366H120.755V23.0763H127.294V27.1079C127.372 26.9922 127.479 26.8187 127.615 26.6105C127.901 26.2114 128.213 25.8317 128.549 25.4739C129.026 24.9308 129.565 24.4455 130.154 24.0278C130.88 23.5473 131.666 23.1642 132.491 22.8883C133.483 22.5389 134.528 22.3647 135.58 22.3735Z" fill="#295965"/>
</svg>
