<svg width="190" height="60" viewBox="0 0 190 60" fill="none" xmlns="http://www.w3.org/2000/svg">
<path d="M132.912 47.3333C132.912 45.559 132.939 43.7846 132.895 42.0121C132.881 41.3962 133.079 41.2399 133.662 41.2766C135.339 41.3612 137.027 41.1535 138.698 41.4201C142.127 41.9717 143.758 44.658 143.49 47.8206C143.179 51.4887 141.013 53.3605 137.308 53.4157C136.085 53.4322 134.859 53.3789 133.631 53.4341C132.998 53.4617 132.881 53.2355 132.895 52.6618C132.937 50.882 132.912 49.1076 132.912 47.3333ZM134.567 47.3462C134.567 47.8665 134.545 48.3887 134.567 48.9072C134.622 49.9038 134.116 51.3067 134.75 51.7885C135.422 52.2904 136.747 51.9723 137.782 51.9227C139.327 51.8565 140.566 51.2056 141.228 49.7438C141.58 48.9932 141.763 48.1743 141.763 47.3453C141.763 46.5162 141.58 45.6973 141.228 44.9467C140.754 43.8747 139.908 43.2183 138.774 42.9241C137.595 42.6134 136.394 42.8322 135.208 42.7402C134.693 42.7053 134.526 42.8653 134.541 43.393C134.592 44.7113 134.567 46.0297 134.567 47.3462Z" fill="#08B3DF"/>
<path d="M153.869 47.3001C153.887 43.6319 156.39 41.0485 159.889 41.0964C163.351 41.1423 165.772 43.7183 165.772 47.3479C165.772 51.0106 163.283 53.6123 159.789 53.5995C156.296 53.5866 153.85 50.9848 153.869 47.3001ZM155.671 47.5226C155.671 47.5869 155.685 47.8315 155.702 48.0742C155.862 50.3211 157.316 51.9354 159.339 52.1193C161.667 52.3216 163.272 51.108 163.836 48.7637C163.997 48.0479 164.037 47.31 163.952 46.5812C163.667 43.6393 161.266 41.9495 158.539 42.7567C156.702 43.2918 155.671 44.9429 155.671 47.5226Z" fill="#08B3DF"/>
<path d="M94.1743 50.9887C95.4283 51.7131 96.7007 52.1857 98.1183 52.125C98.6394 52.1204 99.1551 52.0188 99.6389 51.8253C100.224 51.5697 100.689 51.2056 100.764 50.5033C100.813 50.1682 100.762 49.8261 100.616 49.5205C100.47 49.215 100.236 48.9599 99.9442 48.7878C99.3503 48.3906 98.681 48.1755 98.0209 47.942C97.2725 47.6772 96.5095 47.4529 95.7777 47.1513C94.3913 46.5813 93.7294 45.6804 93.7551 44.4926C93.7755 43.8302 93.9942 43.1892 94.383 42.6526C94.7718 42.1159 95.3128 41.7084 95.9358 41.4826C97.3332 40.9568 98.7582 41.0505 100.183 41.3558C100.273 41.3742 100.358 41.4146 100.446 41.4367C102.049 41.8485 102.086 41.9166 101.571 43.5567C100.783 43.2276 100.021 42.8304 99.1811 42.6631C98.2617 42.4792 97.3424 42.5197 96.4984 42.9554C95.2776 43.5787 95.2206 44.9136 96.3845 45.6473C97.0096 46.0426 97.7304 46.2154 98.4254 46.4416C99.1895 46.6561 99.9334 46.9373 100.648 47.2819C102.099 48.0541 102.77 49.2493 102.561 50.7129C102.36 52.1232 101.393 53.0756 99.8026 53.3974C98.1202 53.7394 96.4617 53.5812 94.8087 53.162C94.1321 52.9873 93.8066 52.7005 94.064 51.9613C94.1615 51.6855 94.1412 51.3674 94.1743 50.9887Z" fill="#08B3DF"/>
<path d="M128.133 45.513C128.069 46.8 128.251 48.3372 127.964 49.8578C127.596 51.8417 126.329 53.1178 124.334 53.4653C120.657 54.1033 118.292 52.1782 118.213 48.4567C118.167 46.2852 118.245 44.1119 118.184 41.9404C118.162 41.1828 118.552 41.2693 119.026 41.2785C119.501 41.2876 119.909 41.1461 119.883 41.9275C119.817 43.8839 119.865 45.8439 119.859 47.8113C119.854 48.392 119.916 48.9713 120.043 49.5379C120.438 51.2901 121.457 52.1359 123.189 52.1323C124.921 52.1286 125.93 51.2662 126.3 49.4992C126.668 47.6826 126.407 45.8402 126.484 44.0107C126.526 43.3986 126.526 42.7842 126.484 42.1721C126.412 41.4623 126.635 41.2417 127.368 41.2527C128.012 41.2674 128.201 41.4237 128.168 42.0691C128.093 43.1374 128.133 44.2112 128.133 45.513Z" fill="#08B3DF"/>
<path d="M111.037 48.1037C111.037 49.6041 110.987 51.1063 111.057 52.603C111.094 53.3476 110.814 53.4304 110.178 53.4341C109.542 53.4377 109.356 53.2961 109.363 52.6361C109.402 49.6059 109.363 46.5684 109.397 43.5456C109.397 42.9094 109.257 42.6814 108.599 42.7384C107.863 42.7991 107.128 42.7163 106.392 42.7641C105.793 42.8027 105.841 42.4424 105.868 42.0691C105.896 41.6958 105.67 41.2619 106.377 41.2693C108.919 41.2987 111.46 41.3024 114.001 41.2693C114.677 41.2582 114.527 41.6627 114.552 42.0397C114.576 42.4663 114.587 42.8156 113.964 42.7752C113.263 42.7218 112.55 42.8211 111.853 42.7476C111.118 42.6703 111.002 42.9645 111.024 43.6154C111.07 45.1029 111.037 46.6033 111.037 48.1037Z" fill="#08B3DF"/>
<path d="M149.458 47.438C149.458 49.2123 149.412 50.9866 149.48 52.7573C149.509 53.5351 149.075 53.4045 148.625 53.4082C148.174 53.4119 147.77 53.5112 147.781 52.7499C147.829 49.1424 147.829 45.5343 147.781 41.9256C147.77 41.1496 148.184 41.2802 148.634 41.2747C149.085 41.2691 149.506 41.1699 149.478 41.9329C149.414 43.7698 149.458 45.5993 149.458 47.438Z" fill="#08B3DF"/>
<path d="M42.6317 41.6462C42.9885 41.7878 43.0657 42.1372 43.2183 42.4295L40.7122 49.6942L42.6501 48.6645C42.8597 49.4 42.834 50.1447 42.8469 50.8912C41.569 51.8105 40.1164 52.4081 38.7907 53.2318C38.6914 52.4964 38.9967 51.7278 38.5977 51.0254C39.2504 50.6779 39.5409 50.0969 39.7818 49.4184C40.7048 46.813 41.6775 44.2333 42.6317 41.6462Z" fill="#03ACD6"/>
<path d="M38.5976 51.0179C38.9966 51.7277 38.6913 52.4889 38.7906 53.2244C37.3859 54.1952 35.8322 54.9049 34.3778 55.7783C34.01 55.5282 33.9972 55.155 34.01 54.7597C34.0229 54.4103 34.0634 54.0242 33.6221 53.8697L33.8262 53.7705L34.01 53.6417C34.4771 53.3641 34.9294 53.0552 35.4166 52.8143C36.0289 52.5109 36.2404 52.2627 35.5913 51.7111C34.9 51.1301 34.3042 50.4387 33.657 49.7934C33.8001 49.7517 33.931 49.6759 34.0383 49.5724C34.1456 49.469 34.2261 49.341 34.273 49.1995C34.7363 49.6352 35.2033 50.0655 35.6593 50.5068C36.9758 51.7902 36.974 51.792 38.5976 51.0179Z" fill="#05AED5"/>
<path d="M33.615 53.8733C34.0563 54.0333 34.0159 54.4139 34.003 54.7632C33.9901 55.1585 34.003 55.5318 34.3707 55.7819C32.8115 56.7711 31.2131 57.6904 29.5754 58.5399C29.1341 58.4663 29.2205 58.1152 29.2371 57.8375C29.2464 57.3923 29.1843 56.9484 29.0532 56.5228L33.615 53.8733Z" fill="#04ACCD"/>
<path d="M28.1318 3.00989C28.1815 2.50609 28.3856 2.02435 28.3157 1.50584C28.3036 1.44621 28.3051 1.38463 28.3199 1.32562C28.3347 1.2666 28.3625 1.21165 28.4012 1.16476C28.44 1.11788 28.4888 1.08026 28.544 1.05465C28.5992 1.02904 28.6594 1.01609 28.7202 1.01675C30.1606 1.74241 31.5601 2.54651 32.9124 3.42543C32.177 4.01198 32.7286 4.84307 32.5098 5.53074L28.1318 3.00989Z" fill="#04ACCD"/>
<path d="M32.5044 5.53047C32.7177 4.8428 32.1789 4.01171 32.9071 3.42517L36.7683 5.64631C36.5036 6.36524 36.612 7.11727 36.5845 7.85274L36.4006 7.77552L36.2167 7.64865C34.9787 6.94382 33.7412 6.23776 32.5044 5.53047Z" fill="#05AED5"/>
<path d="M8.99488 50.2918C6.42071 48.8208 3.85206 47.3499 1.28892 45.8789C1.06644 45.752 0.770412 45.3917 0.511157 45.0828C0.18138 44.6918 0.00034103 44.1968 2.88439e-10 43.6854L2.88439e-10 15.8347C-3.46775e-06 15.7013 0.0312664 15.5698 0.0912992 15.4507C0.151332 15.3316 0.238455 15.2282 0.345674 15.1488C1.02047 14.6506 7.48348 10.6165 9.51156 9.46729C10.0485 10.0759 9.4803 10.9088 9.93262 11.534L3.12578 15.5405L9.79288 19.5856C9.4472 19.7106 9.36078 19.9828 9.38101 20.3211L2.26343 16.1895C2.14024 17.9731 2.14208 17.9712 3.23426 19.0432C5.34876 21.1136 7.46141 23.1845 9.57223 25.2561C9.47294 25.5338 9.16588 25.7103 9.18611 26.0468L3.00994 20.163L2.87572 20.2512C4.44228 24.6034 6.00149 28.9556 7.61586 33.4218C8.16747 32.5263 8.64002 31.7504 9.1144 30.9726C9.4564 30.9359 9.57407 31.3404 9.88481 31.3643C9.40675 32.2101 8.96546 33.0798 8.43776 33.8943C8.10128 34.4147 8.09392 34.8651 8.31089 35.4241C8.70437 36.4391 9.02798 37.4834 9.38101 38.5149L8.84227 39.4527C8.38444 38.2465 7.92293 37.0422 7.41177 35.6944L3.27471 42.8359C5.20902 41.7952 7.14516 40.8997 8.85882 39.6329C9.12543 39.9565 8.96179 40.3389 9.00776 40.6938L2.89594 44.3712L9.43433 48.249C9.06659 48.5009 9.23575 48.887 9.18979 49.2217C9.14014 49.571 9.3332 49.9792 8.99488 50.2918ZM2.28917 21.3655V42.6575C3.87229 39.9289 5.33956 37.3915 6.81603 34.8578C6.8878 34.7438 6.93037 34.6139 6.94 34.4795C6.94962 34.3451 6.92599 34.2104 6.87119 34.0874C5.3653 29.9411 3.87596 25.782 2.28917 21.3655Z" fill="#15AEAB"/>
<path d="M28.7218 1.01658C28.6608 1.01564 28.6004 1.02839 28.545 1.05388C28.4896 1.07937 28.4406 1.11695 28.4016 1.16387C28.3626 1.21079 28.3347 1.26585 28.3197 1.325C28.3048 1.38415 28.3034 1.44589 28.3155 1.50567C28.378 2.02418 28.1739 2.50592 28.1316 3.00972L27.3042 2.64198L30.0052 7.44649C29.7442 7.58439 29.7 7.95213 29.3838 8.02935C28.6373 6.80846 27.8926 5.58757 27.0358 4.18281V16.2465L29.5088 15.1708C29.6085 15.1235 29.723 15.1178 29.8269 15.1549C29.9309 15.1919 30.0159 15.2688 30.0632 15.3685C30.1105 15.4682 30.1162 15.5826 30.0791 15.6866C30.0421 15.7906 29.9652 15.8756 29.8655 15.9229L27.4219 17.1732L29.6026 18.3021C29.564 18.5908 29.7276 18.9806 29.2348 19.0376L27.0284 18.1183V28.9463L29.3838 27.6592C29.501 27.7439 29.5975 27.8541 29.666 27.9815C29.7344 28.1089 29.7731 28.2502 29.7791 28.3947L27.4311 29.8767L29.7772 31.3568C29.6044 31.5812 29.6632 31.9287 29.3819 32.0923L27.0689 30.8347V40.8941L29.222 39.0555C29.6338 39.0279 29.5492 39.5243 29.8342 39.631C29.0583 40.3517 28.2953 41.0854 27.5009 41.7841C27.1663 42.0783 27.17 42.2676 27.4899 42.5729C28.2787 43.3212 29.0344 44.1063 29.803 44.8768C29.6706 45.136 29.6191 45.467 29.2275 45.489L27.0541 43.4665V54.8664C27.0546 54.8777 27.059 54.8885 27.0664 54.897C27.0739 54.9056 27.0841 54.9113 27.0953 54.9132C27.1065 54.9151 27.1179 54.9132 27.1279 54.9077C27.1378 54.9022 27.1455 54.8934 27.1498 54.8829L29.2569 48.7895C29.6246 48.7895 29.6467 49.2584 29.963 49.3411C29.1043 51.9815 28.2456 54.6218 27.3465 57.3835L29.0454 56.5065C29.1765 56.9321 29.2386 57.3759 29.2293 57.8211C29.2128 58.0988 29.1263 58.45 29.5676 58.5235C29.1686 58.7681 28.1537 59.3436 27.5304 59.7003C27.1872 59.8968 26.7987 60.0001 26.4032 60H26.3867C25.9619 60.0008 25.5449 59.8857 25.1805 59.6672L22.6063 58.1392C23.2922 57.5196 22.8307 56.7087 22.9631 55.9972C23.7813 56.3281 24.4561 56.9606 25.3368 57.2254C25.4471 56.7271 25.2136 56.3759 25.0959 56.01C24.3329 53.6087 23.5478 51.2129 22.77 48.8171L22.656 48.6148C22.6328 48.5731 22.6184 48.5272 22.6134 48.4798C22.6085 48.4324 22.6132 48.3845 22.6273 48.339C22.6414 48.2935 22.6646 48.2513 22.6954 48.2149C22.7263 48.1786 22.7641 48.1489 22.8068 48.1276L23.3198 47.8701L25.8939 55.372C25.8971 55.3839 25.9047 55.3942 25.9151 55.4009C25.9255 55.4076 25.938 55.4101 25.9502 55.4081C25.9624 55.406 25.9733 55.3994 25.981 55.3897C25.9886 55.38 25.9923 55.3678 25.9914 55.3555V43.2091L23.2959 45.5074C22.9428 45.4486 22.8969 45.1268 22.7626 44.8804C23.5239 44.178 24.2538 43.4371 25.0573 42.7862C25.6623 42.2989 25.6953 41.9863 25.0573 41.4991C24.2144 40.8495 23.4559 40.0972 22.7994 39.2595C22.8043 39.1085 22.8455 38.9608 22.9194 38.829C22.9933 38.6972 23.0978 38.585 23.2241 38.502C24.2483 39.2283 24.879 40.3959 26.0741 41.1663C26.0741 37.7389 26.0741 34.4698 26.0741 31.2006C26.0741 30.7611 25.9031 30.7501 25.5758 30.9395C24.7852 31.3973 23.9854 31.8386 23.1855 32.2872C22.9318 32.1273 22.9594 31.7227 22.6174 31.6382L25.449 29.8969L22.9833 28.3561C22.9515 28.0511 23.0158 27.7438 23.1671 27.4772C23.9817 27.8247 24.605 28.4885 25.4508 28.8047C25.9473 28.9886 26.0778 28.9555 26.0741 28.4076C26.0582 25.0857 26.0582 21.7625 26.0741 18.4382C26.0741 17.8388 25.8608 17.8645 25.4214 18.0705C24.6859 18.4235 23.9394 18.7305 23.1966 19.0578C22.8619 18.9254 22.7718 18.657 22.7939 18.3224C23.4558 17.8369 24.3292 17.7137 24.9783 17.1217L22.7994 16.0626L22.9833 15.2039C23.6507 15.5 24.32 15.7905 24.9838 16.0939C26.076 16.594 26.076 16.5977 26.076 15.4374V3.907C26.0771 3.88478 26.0705 3.86285 26.0574 3.84486C26.0444 3.82686 26.0255 3.81389 26.004 3.80809C25.9825 3.80229 25.9597 3.80401 25.9394 3.81298C25.919 3.82194 25.9023 3.8376 25.8921 3.85736L23.305 8.20403L22.542 7.81239L25.2228 3.03179C25.2337 3.01096 25.2377 2.98719 25.2342 2.96394C25.2306 2.94069 25.2197 2.91918 25.2031 2.90255C25.1865 2.88592 25.165 2.87504 25.1417 2.8715C25.1185 2.86795 25.0947 2.87193 25.0739 2.88285L23.1671 3.92355C23.0153 3.49964 22.9527 3.04893 22.9833 2.59969C23.0035 2.28712 22.9833 1.98189 22.5696 1.93593L25.2798 0.316038L25.6181 0.159749C25.8632 0.0480187 26.1304 -0.0064086 26.3996 0.000600506C26.6689 0.00760961 26.9329 0.0758709 27.1718 0.200201L28.7218 1.01658Z" fill="#0AAEC5"/>
<path d="M42.8268 9.14172C45.5554 10.6991 48.273 12.2785 51.02 13.8046C52.2464 14.485 52.7833 15.4337 52.7778 16.8458C52.7459 25.6569 52.7459 34.4673 52.7778 43.277C52.7778 44.6138 52.274 45.5405 51.1229 46.1895C48.3649 47.7396 45.6069 49.3153 42.8488 50.8911C42.8359 50.1446 42.8617 49.3944 42.6521 48.6644L49.9958 44.3545C48.4072 43.4113 46.9252 42.5287 45.4395 41.6498C43.9539 40.7709 43.9594 40.7764 43.2846 42.3669C43.2754 42.3926 43.2423 42.4092 43.2202 42.4294C43.0676 42.1371 42.9904 41.7877 42.6337 41.6461C42.6668 41.5211 42.698 41.3942 42.7311 41.2692L42.8323 41.0945C43.1467 40.4455 42.9132 40.0207 42.2807 39.7578C42.3413 39.4636 42.4039 39.1694 42.4645 38.8752C43.2 39.3882 43.5677 39.2154 43.7792 38.3236C44.0365 37.3898 44.3616 36.476 44.7519 35.5895C44.8466 35.3888 44.8872 35.1668 44.8698 34.9456C44.8524 34.7244 44.7775 34.5115 44.6526 34.3281C43.8196 32.9252 43.0253 31.5002 42.2163 30.0844C42.4517 29.9833 42.5546 29.667 42.8635 29.6873C43.8178 30.8971 44.4742 32.2982 45.412 33.7324L49.6575 21.9298L43.5769 27.3172L43.1908 26.5358C45.4064 24.5132 47.6037 22.4906 49.8487 20.492C50.0965 20.2916 50.298 20.0399 50.4392 19.7542C50.5805 19.4686 50.6581 19.1557 50.6669 18.8371C50.6872 18.1642 50.6522 17.4894 50.678 16.8146C50.7037 16.1876 50.4628 16.2464 50.0418 16.4947C48.6885 17.2926 47.3242 18.0723 45.9617 18.8574C45.844 18.6036 45.5701 18.429 45.594 18.1072L49.766 15.533C48.694 14.9079 47.7434 14.3213 46.7542 13.7863C45.4028 13.0508 44.1488 12.1314 42.698 11.5798C42.6962 10.7671 42.4848 9.93788 42.8268 9.14172ZM50.6191 42.6666V22.3546C50.5033 22.4998 50.4261 22.5587 50.3985 22.6359C48.9913 26.5302 47.5853 30.424 46.1805 34.3171C46.0242 34.7437 46.1382 35.0673 46.3497 35.4203C47.4033 37.2075 48.4384 39.0039 49.4865 40.7948C49.8138 41.3703 50.1595 41.9219 50.6191 42.6666ZM45.6124 35.9995C45.1509 37.2516 44.7519 38.3585 44.3363 39.4581C44.1819 39.8644 44.4577 39.9858 44.7206 40.1531C45.4561 40.6238 46.2302 41.0504 46.9509 41.5634C47.7379 42.115 48.6683 42.4827 49.709 43.0141L45.6124 35.9995Z" fill="#1DABE2"/>
<path d="M43.1818 26.5357L43.5679 27.3172C42.7938 27.9497 42.097 28.6043 42.8692 29.6909C42.5603 29.6707 42.4574 29.987 42.222 30.0881L41.5913 29.1853L36.0146 34.1111C35.029 34.0376 35.6799 33.4308 35.6652 33.0392C35.7241 33.0263 35.8013 33.0392 35.8491 32.9969C37.5199 31.5186 39.1894 30.0384 40.8577 28.5565C41.0066 28.4259 41.1114 28.2807 40.9956 28.0821C40.2289 26.7545 39.4584 25.4288 38.6053 23.9597L35.8473 31.9102C35.3416 31.787 35.4299 31.3145 35.2956 30.9725C36.0311 28.6668 36.7795 26.3611 37.583 23.8623L35.6707 24.9269C35.5614 24.8337 35.4723 24.719 35.409 24.5899C35.3458 24.4609 35.3097 24.3202 35.303 24.1767C35.8546 23.6398 36.6839 23.4817 37.2373 22.8473L35.303 21.9133C35.3637 21.6246 35.4262 21.3359 35.4869 21.0472C36.0272 21.3486 36.6147 21.5563 37.2244 21.6614L35.2681 18.1366C35.4942 17.9637 35.6652 17.6806 36.0183 17.7688C36.7813 19.032 37.5444 20.297 38.3571 21.6466C39.4952 18.2855 40.6058 15.0274 41.6851 11.7637C41.7697 11.5099 42.1356 11.1955 41.6851 10.8756C41.3266 10.6163 41.0342 10.7101 40.6812 10.8756C39.1459 11.5982 37.5977 12.2969 36.055 13.0048L35.8454 13.1335L35.6615 13.1905C35.6009 12.9055 35.5384 12.6187 35.4777 12.3318L40.1939 10.0482L36.5754 7.85646C36.6066 7.12098 36.4982 6.36528 36.7592 5.65002C38.8198 6.74589 40.8424 7.91039 42.8269 9.14354C42.4849 9.93969 42.6964 10.7689 42.6817 11.5853C41.5913 14.9078 40.501 18.2322 39.372 21.6724L45.5758 18.1053C45.5592 18.4271 45.8332 18.6018 45.9527 18.8555C43.8676 20.104 41.7899 21.3635 39.7012 22.5881C39.2452 22.8547 39.0907 23.0459 39.429 23.5479C39.9696 24.355 40.4182 25.2211 40.9129 26.0595C41.207 26.556 41.4203 27.3245 41.8322 27.4624C42.3047 27.615 42.6578 26.7784 43.1818 26.5357Z" fill="#03ACD6"/>
<path d="M9.9288 11.5339C9.47648 10.9087 10.0446 10.0758 9.50774 9.46717C11.6847 8.10469 13.9096 6.82864 16.1804 5.61694C16.2925 6.31013 15.899 7.10996 16.6143 7.67628L12.3982 10.2082C13.0399 10.5097 13.6062 10.734 14.1192 11.0319C14.9815 11.5081 15.9965 11.6901 16.732 12.4072C16.5949 12.6274 16.527 12.8836 16.5371 13.1427C15.0992 12.4808 13.6669 11.8078 12.2198 11.1661C11.9109 11.0301 11.5505 10.6145 11.2563 10.905C10.9621 11.1955 11.3244 11.5927 11.4255 11.9255C11.773 13.0618 12.161 14.1853 12.5397 15.3124C13.2035 17.289 13.8691 19.2656 14.5825 21.3801L16.2226 18.668C16.5904 18.7066 16.7154 18.9475 16.7412 19.2748C16.6529 20.1463 15.9009 20.7108 15.6545 21.5952L16.7099 21.2091L16.7209 22.1284L15.4522 22.8124L16.9232 23.7777C16.8607 24.0554 17.0611 24.4562 16.572 24.5371C16.23 24.5058 16.0204 24.105 15.5423 24.1896C15.8751 25.2597 16.1951 26.2802 16.515 27.3025C16.1877 27.3025 16.0241 27.6187 15.7354 27.6904C15.2904 26.4199 14.8473 25.1475 14.3472 23.717C13.6522 24.914 13.0822 25.986 12.4221 26.9973C12.0874 27.5084 12.2382 27.7677 12.6059 28.1336C13.8195 29.2919 14.9962 30.4889 16.1859 31.6694C16.1197 31.993 16.0523 32.3166 15.9836 32.6402C14.7131 31.4267 13.4094 30.2389 12.1812 28.9904C11.6774 28.4811 11.4696 28.5767 11.1718 29.1577C10.7856 29.9097 10.3149 30.6176 9.88467 31.3439C9.57393 31.32 9.45625 30.9155 9.11426 30.9523C9.31835 30.5845 9.52061 30.2039 9.72654 29.8307C10.0943 29.1651 10.7654 28.4958 10.7525 27.8394C10.7397 27.183 9.77619 26.7564 9.28158 26.1846C9.24548 26.1371 9.21349 26.0867 9.18597 26.0338C9.16574 25.6973 9.4728 25.5208 9.57209 25.2431C10.041 25.6771 10.5319 26.0889 10.9677 26.5541C11.3078 26.9219 11.4733 26.8428 11.7031 26.4475C12.2547 25.462 12.8064 24.4783 13.4058 23.5276C13.7073 23.0496 13.6264 22.8124 13.1502 22.5403C11.8815 21.8177 10.6385 21.0473 9.38455 20.2952C9.36432 19.9643 9.45074 19.6921 9.79641 19.5597L13.7331 21.7662C12.5765 18.2727 11.5009 15.0219 10.4234 11.7692C10.3351 11.5578 10.1899 11.4401 9.9288 11.5339Z" fill="#0AAFB5"/>
<path d="M16.6055 7.67642C15.8902 7.1101 16.2837 6.31027 16.1716 5.61708C18.2622 4.31897 20.384 3.07785 22.5629 1.9397C22.9802 1.98566 22.9968 2.29089 22.9766 2.60347C22.946 3.0527 23.0086 3.50341 23.1604 3.92732L16.6055 7.67642Z" fill="#09AFBD"/>
<path d="M15.9962 32.653C16.0648 32.3294 16.1323 32.0058 16.1985 31.6822C16.5294 31.7833 16.6177 32.2926 17.1693 32.1989L15.7425 27.7033C16.0311 27.6316 16.1948 27.308 16.5221 27.3153C17.1932 29.2937 17.8864 31.263 18.5207 33.2543C18.6936 33.8059 18.8664 33.8445 19.3261 33.5632C20.4127 32.8994 21.5325 32.2761 22.6357 31.6381C22.9777 31.7227 22.9501 32.1272 23.2039 32.2871C22.1944 32.9013 21.2144 33.5742 20.1645 34.1111C19.3389 34.534 19.464 34.8209 20.0524 35.3596C21.1556 36.3672 22.1779 37.4502 23.2351 38.5019C23.1088 38.5849 23.0043 38.6971 22.9304 38.8289C22.8565 38.9607 22.8153 39.1084 22.8104 39.2595C21.7311 38.432 20.9257 37.2847 19.7343 36.5621C20.5451 39.2981 21.4314 41.9752 22.3176 44.6523C22.3912 44.8748 22.5015 45.044 22.7791 44.8822C22.9134 45.1286 22.963 45.4503 23.3124 45.5092C22.8233 45.8935 22.8086 46.3513 23.0494 46.89C23.1737 47.2183 23.2745 47.555 23.351 47.8976L22.6155 48.2654L22.0087 46.776L16.1433 52.0218L22.9832 56.0228C22.8508 56.7344 23.3124 57.5453 22.6265 58.1649L15.6285 54.129C15.8546 53.2004 16.0183 52.2719 15.5586 51.3617C17.4304 49.6573 19.2911 47.9418 21.1832 46.2612C21.5803 45.9063 21.6704 45.6121 21.4939 45.0991C20.5543 42.3705 19.6552 39.6272 18.7359 36.8875C18.1842 35.2051 18.1842 35.2033 16.6839 36.1282C16.204 36.0399 16.3989 35.6446 16.3364 35.3669C16.6021 35.1728 16.8797 34.9953 17.1674 34.8356C17.7191 34.5671 17.6988 34.3226 17.2502 33.9401C16.8015 33.5577 16.4099 33.0851 15.9962 32.653Z" fill="#09AFBD"/>
<path d="M15.5623 51.3617C16.022 52.2811 15.8584 53.2004 15.6322 54.129C13.3853 52.9099 11.166 51.6412 8.99452 50.2916C9.33284 49.979 9.13978 49.5709 9.18942 49.2068C9.23539 48.8722 9.06807 48.486 9.43397 48.2341L12.5395 49.922C12.4035 49.5083 12.3134 49.227 12.2159 48.9475L9.37697 40.8996L9.27033 40.7249L9.00923 40.6863C8.96327 40.3314 9.12691 39.9508 8.8603 39.6254L8.84375 39.4415C9.02394 39.1289 9.20352 38.8163 9.38249 38.5038C9.60865 39.1933 9.93409 39.1105 10.4857 38.7759C12.4163 37.6028 14.3874 36.4959 16.3419 35.3633C16.4045 35.6409 16.2096 36.0362 16.6895 36.1245C16.3842 36.3212 16.0772 36.518 15.7701 36.7166C14.0675 37.8308 12.1883 38.6398 10.5096 39.8C10.0389 40.1255 10.0536 40.4583 10.1805 40.8757C10.2577 41.1294 10.4158 41.3593 10.5078 41.6112C11.5448 44.4391 12.5775 47.2676 13.606 50.0967C13.7528 50.4898 14.0225 50.8251 14.3748 51.0529C14.7272 51.2808 15.1436 51.3891 15.5623 51.3617Z" fill="#0AAFB5"/>
<path d="M29.2207 39.0738L33.1169 35.5012C33.8634 34.8172 33.8524 34.8264 32.9514 34.2785C31.7581 33.5614 30.5611 32.8314 29.3807 32.107C29.662 31.9415 29.6032 31.594 29.776 31.3715C31.0337 32.0978 32.3134 32.791 33.5398 33.5669C34.1374 33.9457 34.3249 33.7894 34.4996 33.1845C34.7184 32.4361 35.0218 31.7135 35.2866 30.978C35.4208 31.32 35.3325 31.7926 35.8382 31.9158C35.9117 32.3111 35.4318 32.6237 35.6653 33.0447C35.68 33.4364 35.0291 34.0431 36.0147 34.1167C35.8474 34.398 35.2994 34.6352 35.9099 35.0084C35.7856 35.0887 35.682 35.1971 35.6076 35.3249C35.5332 35.4527 35.4899 35.5963 35.4815 35.7439C34.9188 35.3302 34.6687 35.4681 34.4499 36.1503C33.4571 39.2417 32.4249 42.3197 31.3536 45.3842C31.1605 45.9358 31.2617 46.2686 31.668 46.6492C32.5579 47.4803 33.4037 48.3555 34.2661 49.2234C34.2192 49.3649 34.1387 49.4929 34.0314 49.5964C33.9241 49.6998 33.7932 49.7756 33.6501 49.8173L30.7965 47.1475C30.4986 47.9436 30.2301 48.6663 29.9617 49.387C29.6454 49.3061 29.6326 48.8354 29.2556 48.8354C29.3426 48.4548 29.4594 48.0816 29.605 47.7193C30.0077 46.8827 30.0867 46.1325 29.2262 45.5258C29.6123 45.5037 29.6693 45.1727 29.8017 44.9135C30.1695 45.2261 30.4085 45.4081 30.6273 44.7186C31.3885 42.3154 32.2233 39.938 33.0176 37.5477C33.0801 37.3638 33.2015 37.1616 32.9974 36.9336L29.8256 39.6714C29.548 39.5427 29.6326 39.0462 29.2207 39.0738Z" fill="#04ACCD"/>
<path d="M22.7999 16.0627C22.1913 15.7869 21.5808 15.5111 20.974 15.2353C19.6336 14.612 19.6465 14.6175 18.8614 15.934C18.1847 17.0666 17.6147 18.2691 16.7524 19.2859C16.7267 18.9586 16.5979 18.7178 16.2339 18.6791C16.7138 17.8315 17.1955 16.982 17.6717 16.1326C18.0156 15.5221 18.7198 14.8197 18.5911 14.3214C18.4422 13.7147 17.4088 13.6338 16.7726 13.2955C16.6936 13.2532 16.6182 13.198 16.5409 13.1484C16.5309 12.8892 16.5988 12.633 16.7358 12.4129C17.2286 12.3596 17.6056 12.6629 18.0137 12.8468C19.2512 13.3984 19.242 13.4113 19.9407 12.2161C20.7987 10.7452 21.6648 9.27914 22.5388 7.81799L23.3018 8.20963C22.3549 9.86446 21.4282 11.5285 20.4463 13.1631C20.1264 13.6981 20.211 13.9151 20.7755 14.1431C21.5293 14.4465 22.2464 14.8492 22.9819 15.2095L22.7999 16.0627Z" fill="#09AFBD"/>
<path d="M35.2679 18.1367C34.6887 17.1806 34.0341 16.2612 33.5579 15.2573C33.1901 14.4832 32.8114 14.5347 32.1844 14.8656C31.4103 15.272 30.5921 15.6011 29.7941 15.956C29.7224 15.6839 29.6507 15.4044 29.5808 15.1396C30.3917 14.7351 31.1878 14.292 32.0226 13.9426C32.5374 13.7275 32.5411 13.5308 32.28 13.0895C31.2926 11.4163 30.3438 9.72098 29.3804 8.03306C29.6966 7.95584 29.7481 7.5881 30.0019 7.4502C30.9892 9.10502 32.0244 10.7598 32.9438 12.4496C33.3244 13.1428 33.6645 13.2991 34.3246 12.8468C34.6703 12.6114 35.095 12.5029 35.4867 12.3191C35.5473 12.6059 35.6099 12.8927 35.6705 13.1777C35.3085 13.3906 34.9346 13.5827 34.5508 13.7532C34.0267 13.9573 33.9532 14.1872 34.2639 14.6836C34.8873 15.6839 35.4389 16.7282 36.0217 17.7561C35.6705 17.6807 35.4867 17.9638 35.2679 18.1367Z" fill="#04ACCD"/>
<path d="M22.9835 28.3561L16.5757 24.55C17.0648 24.4691 16.8644 24.0683 16.9269 23.7906C19.0524 24.9478 21.1363 26.1767 23.1784 27.4772C23.0232 27.7426 22.955 28.05 22.9835 28.3561Z" fill="#09AFBD"/>
<path d="M16.7178 21.2201C18.7036 20.1739 20.7427 19.238 22.7965 18.3352C22.7744 18.6643 22.8645 18.9328 23.1992 19.0707C21.0865 20.1904 18.9077 21.1686 16.7288 22.1468L16.7178 21.2201Z" fill="#09AFBD"/>
<path d="M35.6707 24.9268C33.7511 26.1587 31.7819 27.3171 29.7869 28.4075C29.7809 28.263 29.7423 28.1217 29.6738 27.9943C29.6053 27.8669 29.5088 27.7567 29.3916 27.672C31.3149 26.4315 33.2841 25.267 35.2993 24.1785C35.3067 24.322 35.3435 24.4625 35.4074 24.5912C35.4713 24.7199 35.5609 24.8341 35.6707 24.9268Z" fill="#04ACCD"/>
<path d="M29.6026 18.3022C31.6013 19.137 33.5668 20.0453 35.4864 21.0474C35.4257 21.3361 35.3632 21.6248 35.3025 21.9134L29.2349 19.0451C29.724 18.9807 29.5603 18.5909 29.6026 18.3022Z" fill="#04ACCD"/>
<path d="M35.9095 35.0031C38.1361 36.2276 40.3223 37.5018 42.4699 38.8753C42.4074 39.1695 42.3449 39.4637 42.2861 39.7579L35.4829 35.733C35.492 35.5865 35.5354 35.4441 35.6095 35.3173C35.6835 35.1906 35.7863 35.0829 35.9095 35.0031Z" fill="#03ACD6"/>
<path d="M189.166 32.098C188.723 32.4841 187.122 32.6496 186.7 32.3499C186.279 32.0502 186.39 31.6493 186.39 31.2595C186.39 25.6871 186.39 20.1146 186.39 14.5422C186.39 12.9609 185.47 11.8889 184.113 11.8503C182.674 11.808 181.646 12.8616 181.644 14.4245C181.635 19.5986 181.635 24.7726 181.644 29.9467V30.5903C181.644 32.5411 181.644 32.519 179.717 32.486C178.952 32.4731 178.693 32.1182 178.697 31.4122C178.71 28.9023 178.697 26.3907 178.697 23.8735C178.697 20.6576 178.678 17.4381 178.697 14.2277C178.721 11.102 181.223 8.59766 184.244 8.75763C186.467 8.8753 187.984 10.0925 188.874 12.1132C189.03 12.481 189.168 13.7423 189.168 13.9519C189.162 20.0037 189.161 26.0524 189.166 32.098Z" fill="#0A0D1D"/>
<path d="M69.9971 20.5619C69.9971 17.229 69.9971 13.8948 69.9971 10.5594C69.9971 9.21169 70.4696 8.7465 71.8119 8.74282C72.9739 8.74282 74.136 8.73179 75.3054 8.74282C76.663 8.7651 77.9607 9.3055 78.9329 10.2534C79.905 11.2013 80.4781 12.4849 80.5346 13.8415C80.5751 14.851 80.5494 15.8641 80.5494 16.8698C80.5662 18.0431 80.1476 19.181 79.3744 20.0636C78.9975 20.4957 79.0582 20.7164 79.3891 21.1117C80.1689 22.0285 80.5775 23.2038 80.5346 24.4066C80.4979 25.7452 80.7185 27.0985 80.3508 28.4223C79.676 30.8991 77.6718 32.4509 75.1271 32.4675C73.9969 32.4748 72.8648 32.4748 71.731 32.4675C70.5211 32.4675 69.9934 31.9526 69.9897 30.7483C69.9916 27.3522 69.9971 23.9562 69.9971 20.5619ZM72.9225 25.6919C72.9225 26.6682 72.9666 27.6464 72.9078 28.6209C72.8691 29.2534 73.1082 29.3969 73.6782 29.3564C74.2482 29.316 74.7814 29.3564 75.333 29.3417C76.53 29.3049 77.51 28.4389 77.5872 27.2511C77.6525 26.247 77.6525 25.2397 77.5872 24.2356C77.5461 23.6837 77.3034 23.1662 76.9053 22.7817C76.5073 22.3971 75.9816 22.1725 75.4286 22.1506C74.82 22.1175 74.2059 22.1653 73.5991 22.1248C73.099 22.0917 72.8986 22.2296 72.9225 22.7702C72.9537 23.7392 72.9243 24.7155 72.9225 25.6919ZM72.9225 15.3952C72.9225 16.4322 72.9225 17.4693 72.9225 18.5081C72.9225 18.7784 72.8673 19.0597 73.3086 19.0597C74.1011 19.0358 74.9027 19.1094 75.686 19.0156C76.1886 18.9365 76.6494 18.6891 76.9931 18.314C77.3368 17.9389 77.543 17.4583 77.578 16.9507C77.6396 15.9459 77.6396 14.9383 77.578 13.9334C77.5378 13.381 77.2954 12.8628 76.8972 12.4779C76.4989 12.0929 75.9729 11.8681 75.4194 11.8465C74.8108 11.8116 74.1967 11.8631 73.5899 11.8245C73.0879 11.7932 72.8894 11.933 72.9114 12.4717C72.9537 13.4333 72.9243 14.4115 72.9243 15.3879L72.9225 15.3952Z" fill="#0A0D1D"/>
<path d="M170.413 22.7996C170.413 25.5846 170.413 28.3696 170.413 31.1546C170.413 32.3718 170.314 32.4693 169.11 32.4729C167.47 32.4729 167.47 32.4729 167.47 30.853C167.47 28.1906 167.451 25.5208 167.484 22.8658C167.484 22.2921 167.341 22.1303 166.776 22.1615C165.673 22.2094 164.57 22.2094 163.467 22.1615C162.869 22.1358 162.696 22.3086 162.704 22.9173C162.739 25.701 162.722 28.4867 162.719 31.2723C162.719 32.3755 162.623 32.4674 161.499 32.4729C159.791 32.4729 159.78 32.4729 159.78 30.7299C159.78 25.3425 159.78 19.957 159.78 14.5696C159.78 11.7306 161.459 9.49664 163.954 8.93032C167.225 8.19484 170.351 10.7047 170.39 14.1688C170.447 17.039 170.413 19.9165 170.413 22.7996ZM167.472 14.5071C167.46 12.9534 166.523 11.8869 165.16 11.8722C163.748 11.8575 162.755 12.9221 162.728 14.5052C162.711 15.3602 162.728 16.2171 162.728 17.0794C162.728 19.0799 162.728 19.102 164.697 19.0725C165.602 19.0615 166.813 19.466 167.324 18.9052C167.757 18.4125 167.475 15.112 167.47 14.5016L167.472 14.5071Z" fill="#0A0D1D"/>
<path d="M157.148 20.5933V31.1474C157.148 31.6365 157.236 32.2672 156.651 32.3922C155.958 32.5393 155.192 32.6478 154.508 32.2911C154.116 32.087 154.219 31.653 154.219 31.2945C154.219 28.5089 154.199 25.7251 154.23 22.9395C154.23 22.3217 154.112 22.0771 153.439 22.1121C152.336 22.1709 151.233 22.1544 150.13 22.1121C149.589 22.0937 149.47 22.2959 149.473 22.7979C149.497 25.5817 149.486 28.3673 149.484 31.1529C149.484 32.4069 149.425 32.4621 148.197 32.4658C146.577 32.4658 146.557 32.4474 146.557 30.8312C146.557 23.9459 146.557 17.0606 146.557 10.1753C146.557 9.66964 146.403 8.99116 147.024 8.822C147.712 8.63813 148.484 8.58665 149.177 8.88268C149.585 9.06655 149.482 9.50967 149.482 9.87006C149.482 12.6557 149.503 15.4395 149.471 18.2251C149.471 18.8374 149.576 19.0948 150.258 19.0543C151.328 18.9992 152.401 18.9992 153.471 19.0543C154.081 19.0837 154.234 18.887 154.226 18.2913C154.195 15.5075 154.212 12.7219 154.213 9.93625C154.213 8.83304 154.315 8.74662 155.438 8.73926C157.144 8.73926 157.144 8.73926 157.144 10.3941L157.148 20.5933Z" fill="#0A0D1D"/>
<path d="M120.051 20.6207C120.051 17.0659 120.051 13.5111 120.051 9.95632C120.051 8.88068 120.196 8.74278 121.27 8.73542C121.485 8.73542 121.7 8.75013 121.913 8.73542C122.7 8.66923 123.016 9.01858 123.002 9.80922C122.978 12.5948 123.022 15.3823 122.972 18.1679C122.959 18.9034 123.187 19.0192 123.879 19.0634C127.347 19.2895 127.88 17.7763 127.76 15.1433C127.681 13.3708 127.76 11.5909 127.736 9.81106C127.722 9.02778 128.008 8.66188 128.81 8.72807C129.147 8.7474 129.485 8.7474 129.821 8.72807C130.353 8.70968 130.671 9.00571 130.667 9.48745C130.649 12.1168 130.814 14.7516 130.581 17.3791C130.482 18.3904 130.07 19.3456 129.402 20.1114C129.132 20.4332 129.073 20.6299 129.389 20.9995C130.322 22.0862 130.689 23.3898 130.676 24.8185C130.676 26.8999 130.676 28.9831 130.676 31.07C130.676 32.3148 130.533 32.4582 129.327 32.4601C129.143 32.4601 128.959 32.449 128.775 32.4601C128.04 32.5152 127.722 32.1788 127.729 31.4341C127.749 29.3214 127.729 27.2051 127.729 25.0961C127.729 22.9871 126.865 22.1266 124.802 22.1174C122.976 22.1174 122.976 22.1174 122.976 23.8899C122.976 26.3703 122.958 28.8544 122.987 31.3311C122.987 32.1585 122.678 32.5355 121.847 32.4619C121.633 32.4417 121.417 32.4417 121.203 32.4619C120.314 32.5483 120.018 32.1162 120.023 31.2668C120.067 27.7236 120.051 24.1731 120.051 20.6207Z" fill="#0A0D1D"/>
<path d="M93.5635 20.5121C93.5635 18.4013 93.5543 16.2831 93.5635 14.1815C93.5801 11.3315 95.8141 8.87137 98.4783 8.75186C101.42 8.61947 103.936 10.6439 104.053 13.6262C104.237 18.1145 104.129 22.6156 104.142 27.1094C104.132 27.2943 104.111 27.4785 104.079 27.661C103.739 30.5551 101.352 32.6071 98.4875 32.4655C95.8582 32.3349 93.5929 29.8913 93.5672 27.1222C93.547 24.9176 93.5635 22.7149 93.5635 20.5121ZM96.5054 20.5452C96.5054 22.5954 96.5054 24.6474 96.5054 26.6993C96.5054 28.2806 97.4248 29.336 98.7799 29.3746C100.192 29.4169 101.17 28.3946 101.231 26.7619C101.264 25.8756 101.231 24.9857 101.231 24.0976C101.231 20.8836 101.251 17.6622 101.222 14.4518C101.205 12.819 100.203 11.7857 98.7891 11.8225C97.4192 11.8592 96.5036 12.9128 96.4981 14.4812C96.4962 16.5019 96.4999 18.5227 96.4999 20.5452H96.5054Z" fill="#0A0D1D"/>
<path d="M109.755 20.608C109.755 22.6305 109.755 24.6531 109.755 26.6757C109.755 28.3066 110.693 29.3804 112.094 29.3859C113.495 29.3914 114.418 28.3378 114.447 26.6904C114.447 26.4146 114.447 26.1388 114.447 25.8648C114.447 24.4968 114.545 24.403 115.905 24.403C117.266 24.403 117.345 24.5078 117.395 25.9402C117.466 28.0216 117.058 29.9136 115.356 31.2871C113.745 32.5852 111.925 32.8849 110.023 32.0226C108.001 31.1032 106.885 29.4319 106.839 27.2585C106.745 22.8236 106.751 18.3832 106.839 13.9482C106.89 11.1075 109.229 8.7999 111.886 8.75025C114.765 8.69142 117.023 10.7489 117.334 13.7147C117.369 14.0494 117.382 14.3858 117.384 14.7223C117.393 16.6842 117.244 16.8092 115.299 16.6585C114.727 16.6143 114.468 16.3349 114.455 15.7943C114.442 15.2537 114.471 14.7517 114.44 14.2332C114.354 12.7862 113.386 11.8098 112.079 11.8209C110.772 11.8319 109.77 12.8891 109.77 14.3656C109.744 16.447 109.757 18.5266 109.755 20.608Z" fill="#0A0D1D"/>
<path d="M133.322 20.1169C133.393 18.2046 133.129 15.8382 133.425 13.4976C133.805 10.4803 136.133 8.59377 139.047 8.7519C141.645 8.89532 143.828 11.3261 143.911 14.1724C143.92 14.5088 143.911 14.8453 143.911 15.1836C143.911 16.5424 143.802 16.6546 142.465 16.6546C140.983 16.6546 140.985 16.6546 140.978 15.1597C140.978 14.6081 141.02 14.0565 140.842 13.5233C140.492 12.4679 139.658 11.8188 138.602 11.8244C138.093 11.8215 137.598 11.991 137.198 12.3051C136.797 12.6192 136.515 13.0595 136.396 13.5546C136.306 13.8781 136.259 14.2118 136.256 14.5475C136.248 18.5926 136.248 22.6334 136.256 26.67C136.256 28.1519 137.056 29.1908 138.247 29.3526C139.718 29.553 140.888 28.5344 140.974 26.9623C141.004 26.4107 140.991 25.8591 140.974 25.3075C140.959 24.6897 141.274 24.412 141.866 24.4047C142.263 24.4047 142.662 24.3955 143.059 24.4047C143.567 24.4194 143.881 24.6989 143.894 25.1935C143.931 26.4806 143.999 27.7677 143.526 29.0014C142.607 31.3788 140.11 32.8627 137.769 32.4232C135.173 31.936 133.382 29.7148 133.32 26.9071V20.1169H133.322Z" fill="#0A0D1D"/>
<path d="M83.2638 20.2843C83.2638 16.8275 83.2822 13.3689 83.251 9.9122C83.251 9.04434 83.5433 8.64534 84.4259 8.73911C84.6097 8.74838 84.7938 8.74838 84.9775 8.73911C86.0329 8.73911 86.2058 8.91011 86.2058 9.96C86.2058 14.8546 86.2058 19.7504 86.2058 24.6475C86.2058 26.0247 86.2278 27.4055 86.1947 28.7772C86.1837 29.2644 86.3326 29.4042 86.8125 29.3876C87.7907 29.3509 88.7707 29.3876 89.7544 29.3711C90.5065 29.3564 90.8577 29.6322 90.8577 30.4467C90.8577 32.4693 90.8926 32.4693 88.8755 32.4693H85.1982C83.7493 32.4693 83.2638 31.9949 83.262 30.5681C83.2608 27.1395 83.2614 23.7116 83.2638 20.2843Z" fill="#0A0D1D"/>
<path d="M173.092 20.5564C173.092 17.0702 173.092 13.5835 173.092 10.0961C173.092 8.82371 173.179 8.74281 174.438 8.74097C175.909 8.74097 176.03 8.82922 176.032 10.0556C176.032 17.0905 176.032 24.1253 176.032 31.1601C176.032 32.3921 175.926 32.4711 174.44 32.4693C173.19 32.4693 173.094 32.3737 173.092 31.1087C173.091 27.5919 173.091 24.0744 173.092 20.5564Z" fill="#0A0D1D"/>
</svg>
