<svg width="105" height="140" viewBox="0 0 105 140" fill="none" xmlns="http://www.w3.org/2000/svg">
<path d="M69.8334 0H34.9167L69.8334 34.9167V0Z" fill="#00B5A5"/>
<path d="M104.75 34.9167H69.8333L104.75 69.8334V34.9167Z" fill="#00B5A5"/>
<path d="M69.8334 69.8333H34.9167L69.8334 104.75V69.8333Z" fill="#00B5A5"/>
<path d="M34.9167 34.9167L34.9167 8.39233e-05L8.01086e-05 34.9167L34.9167 34.9167Z" fill="#295965"/>
<path d="M69.6753 139.667L69.6753 104.75L34.7586 139.667L69.6753 139.667Z" fill="white"/>
<path d="M34.9166 104.75L34.9166 69.8333L-4.19617e-05 104.75L34.9166 104.75Z" fill="white"/>
<path d="M69.8334 69.8333L69.8334 34.9166L34.9167 69.8333L69.8334 69.8333Z" fill="#295965"/>
<path d="M104.75 104.75H69.8333L104.75 139.667V104.75Z" fill="#00B5A5"/>
</svg>
