<svg width="257" height="60" viewBox="0 0 257 60" fill="none" xmlns="http://www.w3.org/2000/svg">
<path d="M11.3302 12.7581C16.4167 12.7581 20.5786 14.4121 23.8158 17.7201C27.053 21.0282 28.6734 25.2236 28.677 30.3065C28.677 35.393 27.0566 39.5876 23.8158 42.8902C20.5749 46.1928 16.4131 47.8468 11.3302 47.8523H0V12.7581H11.3302ZM11.431 42.1381C14.7391 42.1381 17.4213 40.9846 19.4777 38.6775C21.5341 36.3704 22.5623 33.5801 22.5623 30.3065C22.5623 26.9948 21.5341 24.1954 19.4777 21.9083C17.4213 19.6212 14.7391 18.4786 11.431 18.4804H6.01389V42.1463L11.431 42.1381Z" fill="#295965"/>
<path d="M33.2903 19.2243C32.5519 18.4762 32.1379 17.4673 32.1379 16.4162C32.1379 15.3651 32.5519 14.3563 33.2903 13.6082C33.8446 13.0519 34.5517 12.6728 35.3219 12.5192C36.092 12.3655 36.8905 12.4443 37.6158 12.7453C38.3411 13.0464 38.9607 13.5562 39.3957 14.21C39.8307 14.8639 40.0616 15.6323 40.059 16.4176C40.0571 17.2009 39.8235 17.9662 39.3877 18.6171C38.9518 19.268 38.3331 19.7754 37.6095 20.0755C36.8859 20.3755 36.0897 20.4548 35.3211 20.3033C34.5525 20.1519 33.8459 19.7764 33.2903 19.2243ZM33.0886 47.8522V24.0882H39.108V47.8522H33.0886Z" fill="#295965"/>
<path d="M45.5251 47.8522V9.94861H51.5418V47.8522H45.5251Z" fill="#295965"/>
<path d="M58.158 19.2243C57.4196 18.4762 57.0056 17.4673 57.0056 16.4162C57.0056 15.3651 57.4196 14.3563 58.158 13.6082C58.7123 13.0519 59.4194 12.6728 60.1896 12.5192C60.9597 12.3655 61.7582 12.4443 62.4835 12.7453C63.2088 13.0464 63.8283 13.5562 64.2633 14.21C64.6983 14.8639 64.9292 15.6323 64.9267 16.4176C64.9248 17.2009 64.6912 17.9662 64.2553 18.6171C63.8195 19.268 63.2008 19.7754 62.4772 20.0755C61.7536 20.3755 60.9574 20.4548 60.1888 20.3033C59.4202 20.1519 58.7136 19.7764 58.158 19.2243ZM57.959 47.8522V24.0882H63.9757V47.8522H57.959Z" fill="#295965"/>
<path d="M86.3854 45.3972C84.7504 47.4355 82.5115 48.4546 79.6685 48.4546C76.5257 48.4546 73.8099 47.2683 71.521 44.8958C69.232 42.5233 68.0867 39.5486 68.0848 35.9717C68.0848 32.3948 69.2302 29.4192 71.521 27.0449C73.8117 24.6706 76.5275 23.4843 79.6685 23.4862C81.0528 23.4672 82.421 23.7851 83.655 24.4126C84.8395 25.0339 85.666 25.6606 86.1347 26.2928L86.8377 27.1975V24.0884H92.402V48.0676C92.402 51.9788 91.174 54.9453 88.7179 56.9672C86.2619 58.9891 83.2281 60.0001 79.6167 60.0001C77.616 60.0009 75.6336 59.6179 73.7772 58.8719C71.8897 58.1199 70.5109 57.3596 69.6408 56.5912L68.3355 55.4876L71.7471 50.8743C72.0648 51.2254 72.4082 51.5524 72.7744 51.8526C73.2231 52.2377 74.1423 52.7563 75.532 53.4085C76.8053 54.0326 78.2015 54.3659 79.6194 54.384C81.8593 54.384 83.5478 53.8327 84.685 52.73C85.8222 51.6273 86.3899 50.1404 86.3881 48.2693L86.3854 45.3972ZM86.3854 39.5305V32.4103C86.2519 32.1786 86.0611 31.8653 85.8104 31.5083C85.5597 31.1513 84.9412 30.6472 83.9548 30.0287C82.9876 29.4163 81.8649 29.0947 80.7203 29.1022C78.722 29.1022 77.1343 29.7453 75.9571 31.0315C74.78 32.3176 74.195 33.9644 74.2023 35.9717C74.2023 37.97 74.7872 39.6159 75.9571 40.9093C77.127 42.2027 78.7147 42.8467 80.7203 42.8412C81.8276 42.8599 82.9192 42.5774 83.8785 42.0238C84.8158 41.4788 85.468 40.9184 85.835 40.3425L86.3854 39.5305Z" fill="#295965"/>
<path d="M107.503 23.4861C109.085 23.457 110.656 23.7536 112.118 24.3574C113.58 24.9612 114.902 25.8592 116.003 26.9958C118.324 29.3374 119.485 32.2957 119.485 35.8708C119.485 36.7791 119.469 37.5312 119.436 38.1271H101.678C101.945 39.3278 102.689 40.4305 103.909 41.4351C105.162 42.4489 106.735 42.9823 108.345 42.9393C109.534 42.9488 110.714 42.7449 111.831 42.3371C112.921 41.9374 113.698 41.5368 114.163 41.1354L114.866 40.5332L117.864 45.0456C117.49 45.3969 117.087 45.7159 116.659 45.9994C116.125 46.3627 115.031 46.8641 113.376 47.5035C111.768 48.1278 110.059 48.4502 108.335 48.4545C104.727 48.4545 101.694 47.251 99.2361 44.844C96.7782 42.437 95.5502 39.4795 95.552 35.9717C95.552 32.462 96.6883 29.5036 98.9609 27.0966C101.233 24.6896 104.081 23.4861 107.503 23.4861ZM101.686 33.7645H113.468C113.403 32.5601 112.843 31.4574 111.79 30.4564C110.736 29.4555 109.307 28.9541 107.503 28.9523C105.729 28.9523 104.35 29.4446 103.367 30.4292C102.43 31.3084 101.832 32.489 101.678 33.7645H101.686Z" fill="#295965"/>
<path d="M135.371 23.4861C136.509 23.4653 137.639 23.6693 138.697 24.0864C139.755 24.5035 140.721 25.1255 141.538 25.9167C143.244 27.5407 144.096 29.7207 144.094 32.4565V47.8468H138.077V33.9498C138.077 32.3148 137.643 31.0949 136.775 30.2902C135.906 29.4854 134.77 29.0912 133.366 29.1076C132.799 29.1077 132.237 29.2178 131.712 29.4318C131.226 29.6197 130.767 29.8727 130.349 30.1839C130.005 30.4471 129.685 30.7417 129.396 31.0641C129.183 31.2911 129 31.5438 128.851 31.8161L128.649 32.1649V47.8577H122.635V24.0883H128.251V27.5462C128.319 27.4481 128.409 27.3064 128.524 27.1211C128.774 26.7774 129.047 26.4506 129.341 26.1429C129.752 25.6817 130.215 25.2693 130.72 24.9139C131.34 24.5016 132.01 24.1709 132.714 23.9302C133.567 23.6278 134.467 23.4775 135.371 23.4861Z" fill="#295965"/>
<path d="M160.037 42.8412C160.768 42.8468 161.495 42.7449 162.195 42.5387C162.778 42.3759 163.335 42.131 163.849 41.8112C164.25 41.5514 164.634 41.2675 164.999 40.961C165.264 40.7495 165.5 40.505 165.702 40.2335L165.901 39.931L169.863 43.9421C169.762 44.0756 169.629 44.2445 169.463 44.4435C169.089 44.8365 168.687 45.2009 168.258 45.5334C167.629 46.0479 166.958 46.5091 166.253 46.9122C165.39 47.3777 164.476 47.739 163.528 47.9886C162.392 48.3057 161.217 48.4626 160.037 48.4545C156.462 48.4545 153.437 47.2429 150.963 44.8195C149.765 43.6826 148.816 42.3089 148.177 40.7857C147.539 39.2626 147.223 37.6232 147.252 35.9717C147.252 32.462 148.489 29.5036 150.963 27.0966C153.437 24.6896 156.462 23.4861 160.037 23.4861C161.842 23.4679 163.629 23.8397 165.277 24.5761C166.899 25.3027 168.045 26.0375 168.713 26.7805L169.765 27.8705L165.604 31.5818C165.421 31.3257 165.211 31.09 164.977 30.8788C164.399 30.4378 163.767 30.0716 163.097 29.7888C162.142 29.3327 161.096 29.0998 160.037 29.1076C158.066 29.1076 156.462 29.7761 155.225 31.1132C154.03 32.4515 153.369 34.1829 153.369 35.9771C153.369 37.7714 154.03 39.5028 155.225 40.8411C156.462 42.1727 158.066 42.8394 160.037 42.8412Z" fill="#295965"/>
<path d="M182.85 23.4861C184.432 23.4566 186.003 23.753 187.465 24.3568C188.927 24.9606 190.249 25.8589 191.349 26.9958C193.673 29.3374 194.834 32.2958 194.834 35.8709C194.834 36.7792 194.818 37.5313 194.785 38.1271H177.035C177.302 39.3279 178.046 40.4306 179.267 41.4352C180.519 42.4496 182.092 42.9831 183.703 42.9393C184.891 42.9487 186.072 42.7447 187.188 42.3371C188.278 41.9375 189.056 41.5369 189.521 41.1354L190.221 40.5332L193.218 45.0457C192.846 45.3977 192.444 45.7168 192.017 45.9994C191.472 46.3673 190.382 46.8687 188.731 47.5036C187.127 48.1265 185.423 48.4489 183.703 48.4546C180.093 48.4546 177.061 47.2511 174.605 44.844C172.148 42.437 170.92 39.4796 170.918 35.9717C170.918 32.462 172.054 29.5037 174.327 27.0967C176.599 24.6896 179.44 23.4861 182.85 23.4861ZM177.035 33.7645H188.818C188.75 32.5601 188.191 31.4574 187.139 30.4565C186.087 29.4555 184.658 28.9541 182.85 28.9523C181.079 28.9523 179.7 29.4446 178.714 30.4292C177.78 31.3098 177.186 32.4903 177.035 33.7645Z" fill="#295965"/>
<path d="M202.486 9.78518V47.8387L256.235 56.5312V0L202.486 9.78518Z" fill="#295965"/>
<path d="M223.353 11.8479V19.7747L215.416 11.8479H223.353Z" fill="#00B4A4"/>
<path d="M234.305 19.7803H242.234L234.305 27.7152V19.7803Z" fill="#00B4A4"/>
<path d="M218.28 24.8541V44.6806H223.353V19.7803L218.28 24.8541Z" fill="white"/>
<path d="M241.093 38.7102C240.172 39.4508 239.026 39.8554 237.844 39.8574C235.49 39.8574 234.346 38.187 234.346 34.7509V12.9679L229.272 18.0444V35.1515C229.272 41.6531 231.692 44.6887 236.902 44.6887C239.291 44.6887 241.349 44.0074 243.016 42.6613L243.319 42.4161L241.659 38.2933L241.093 38.7102Z" fill="white"/>
</svg>
