<svg width="17" height="16" viewBox="0 0 17 16" fill="none" xmlns="http://www.w3.org/2000/svg">
<path d="M15.1786 1.32695e-06L1.82143 1.59234e-07C1.33836 1.17003e-07 0.875068 0.180612 0.533484 0.502103C0.1919 0.823594 -1.1012e-07 1.25963 -1.49868e-07 1.71429L-1.2489e-06 14.2857C-1.28864e-06 14.7404 0.191899 15.1764 0.533483 15.4979C0.875067 15.8194 1.33835 16 1.82143 16L7.02958 16L7.02958 10.5604L4.63895 10.5604L4.63895 8L7.02958 8L7.02958 6.04857C7.02958 3.82893 8.4336 2.60286 10.584 2.60286C11.6139 2.60286 12.6908 2.77571 12.6908 2.77571L12.6908 4.95429L11.5042 4.95429C10.3351 4.95429 9.97042 5.63714 9.97042 6.3375L9.97042 8L12.5804 8L12.163 10.5604L9.97042 10.5604L9.97042 16L15.1786 16C15.6616 16 16.1249 15.8194 16.4665 15.4979C16.8081 15.1764 17 14.7404 17 14.2857L17 1.71429C17 1.25963 16.8081 0.823595 16.4665 0.502104C16.1249 0.180613 15.6616 1.36918e-06 15.1786 1.32695e-06V1.32695e-06Z" fill="#00B5A5"/>
</svg>
