<svg width="168" height="60" viewBox="0 0 168 60" fill="none" xmlns="http://www.w3.org/2000/svg">
<path d="M18.4515 3.11482C18.4515 1.39455 17.0571 0 15.3371 0C13.617 0 12.2227 1.39455 12.2227 3.11482V12.7622C12.2227 14.4824 13.617 15.877 15.3371 15.877C17.0571 15.877 18.4515 14.4824 18.4515 12.7622V3.11482Z" fill="#00E676"/>
<path d="M30.659 10.2793C30.659 8.55898 29.2646 7.16443 27.5446 7.16443C25.8245 7.16443 24.4302 8.55898 24.4302 10.2793V19.9266C24.4302 21.6469 25.8245 23.0414 27.5446 23.0414C29.2646 23.0414 30.659 21.6469 30.659 19.9266V10.2793Z" fill="#00E676"/>
<path d="M18.4515 47.2377C18.4515 45.5175 17.0571 44.1229 15.3371 44.1229C13.617 44.1229 12.2227 45.5175 12.2227 47.2377V56.8851C12.2227 58.6054 13.617 59.9999 15.3371 59.9999C17.0571 59.9999 18.4515 58.6054 18.4515 56.8851V47.2377Z" fill="#00E676"/>
<path d="M6.23955 39.9924C6.23955 38.2721 4.84518 36.8776 3.12514 36.8776C1.40511 36.8776 0.0107422 38.2721 0.0107422 39.9924V49.6397C0.0107422 51.36 1.40511 52.7546 3.12514 52.7546C4.84518 52.7546 6.23955 51.36 6.23955 49.6397V39.9924Z" fill="#00E676"/>
<path d="M6.23959 17.3508V15.4264C6.25973 15.0048 6.19412 14.5834 6.04675 14.1878C5.89937 13.7922 5.6733 13.4307 5.38219 13.1249C5.09107 12.8192 4.74098 12.5757 4.35308 12.4092C3.96517 12.2427 3.54752 12.1565 3.12537 12.156C2.70323 12.1555 2.28537 12.2406 1.89706 12.4062C1.50875 12.5718 1.15806 12.8144 0.866209 13.1194C0.574355 13.4244 0.347396 13.7855 0.199061 14.1807C0.0507251 14.5759 -0.0159056 14.9971 0.00319821 15.4188V18.5404C0.857834 31.9547 24.4299 33.632 24.4299 41.91V44.7667C24.4299 45.5928 24.7581 46.3851 25.3422 46.9692C25.9264 47.5533 26.7187 47.8815 27.5448 47.8815C28.3709 47.8815 29.1631 47.5533 29.7473 46.9692C30.3314 46.3851 30.6596 45.5928 30.6596 44.7667V41.9092C31.1481 28.0148 6.23959 27.5238 6.23959 17.3508Z" fill="#00E676"/>
<path d="M73.7508 27.9381V18.8872C73.7508 18.396 73.5557 17.925 73.2084 17.5777C72.8611 17.2304 72.3901 17.0353 71.8989 17.0353H70.4014C69.9506 17.0358 69.5157 17.2014 69.1787 17.5008C68.8417 17.8002 68.626 18.2127 68.5723 18.6602C66.9212 17.6404 65.0277 17.0796 63.0875 17.0357C61.1472 16.9919 59.2304 17.4666 57.5348 18.4109C55.8393 19.3552 54.4264 20.7348 53.442 22.4074C52.4577 24.08 51.9374 25.9849 51.9351 27.9257C51.9327 29.8664 52.4482 31.7727 53.4285 33.4477C54.4088 35.1227 55.8182 36.5058 57.5115 37.4542C59.2047 38.4026 61.1204 38.882 63.0607 38.843C65.0011 38.8039 66.8959 38.2477 68.5496 37.2319V38.4367C68.5494 39.5729 68.1683 40.6763 67.467 41.5702C66.7657 42.4642 65.7849 43.0972 64.6814 43.3679L63.3374 43.4835C61.5326 43.6406 59.731 43.1491 58.256 42.0973C58.07 41.9643 57.8596 41.8692 57.6368 41.8175C57.4141 41.7659 57.1833 41.7586 56.9578 41.7961C56.7322 41.8336 56.5162 41.9152 56.3222 42.0363C56.1282 42.1573 55.96 42.3154 55.8271 42.5015L54.4485 44.4267C54.3652 44.5601 54.3091 44.7085 54.2834 44.8636C54.2576 45.0187 54.2628 45.1774 54.2985 45.3305C54.3343 45.4836 54.3999 45.6281 54.4917 45.7558C54.5834 45.8834 54.6995 45.9917 54.8332 46.0744L56.7154 47.2007C58.516 48.2756 60.5739 48.8434 62.6709 48.8442H63.6183C66.3034 48.8442 68.8785 47.7775 70.7771 45.8789C72.6757 43.9803 73.7424 41.4052 73.7424 38.7201V27.9457L73.7508 27.9381ZM63.0362 33.4624C61.946 33.4622 60.8803 33.1388 59.9738 32.533C59.0674 31.9271 58.361 31.0661 57.9439 30.0588C57.5268 29.0515 57.4177 27.9432 57.6305 26.8739C57.8433 25.8046 58.3684 24.8225 59.1394 24.0516C59.9104 23.2808 60.8926 22.7558 61.9619 22.5432C63.0312 22.3306 64.1396 22.4398 65.1468 22.857C66.154 23.2743 67.0149 23.9809 67.6206 24.8874C68.2263 25.7939 68.5496 26.8596 68.5496 27.9499C68.5496 28.6739 68.407 29.3908 68.1299 30.0596C67.8528 30.7285 67.4467 31.3362 66.9347 31.8481C66.4227 32.36 65.8149 32.766 65.146 33.043C64.4771 33.32 63.7602 33.4625 63.0362 33.4624Z" fill="#00E676"/>
<path d="M90.2075 16.8615C89.1625 16.6418 88.0786 16.6938 87.0594 17.0125C86.0402 17.3313 85.1198 17.9061 84.3862 18.6821V17.9895C84.3862 17.7986 84.3104 17.6156 84.1754 17.4806C84.0405 17.3456 83.8574 17.2698 83.6666 17.2698H80.6985C80.2074 17.2698 79.7364 17.4649 79.3891 17.8122C79.0418 18.1595 78.8467 18.6305 78.8467 19.1217V36.5072C78.8467 37.0178 79.0495 37.5075 79.4106 37.8685C79.7716 38.2296 80.2613 38.4324 80.7719 38.4324H82.4508C82.9614 38.4324 83.4511 38.2296 83.8122 37.8685C84.1732 37.5075 84.3761 37.0178 84.3761 36.5072V25.4931C84.3761 25.3657 85.8812 21.1161 89.7967 22.1707L91.1862 22.8094C92.3142 23.4176 92.6913 22.6364 92.7993 22.4246L93.8041 19.9991C94.5195 18.5328 92.7022 17.0732 90.2075 16.8615Z" fill="#00E676"/>
<path d="M114.443 17.0354H112.803C112.398 17.0313 112.006 17.1761 111.701 17.4423C111.397 17.7085 111.201 18.0775 111.151 18.4789C109.466 17.3101 107.473 16.6658 105.422 16.6271C102.513 16.6838 99.742 17.8793 97.7046 19.9568C95.6672 22.0342 94.5259 24.828 94.5259 27.7378C94.5259 30.6476 95.6672 33.4413 97.7046 35.5188C99.742 37.5963 102.513 38.7918 105.422 38.8485C107.443 38.852 109.423 38.2818 111.132 37.2041V37.6665C111.132 37.9034 111.226 38.1307 111.394 38.2982C111.561 38.4658 111.789 38.5599 112.026 38.5599H114.801C115.312 38.5599 115.802 38.3571 116.163 37.996C116.524 37.635 116.726 37.1453 116.726 36.6347V19.299C116.726 19.0005 116.667 18.705 116.553 18.4294C116.438 18.1539 116.27 17.9037 116.058 17.6933C115.847 17.4829 115.596 17.3165 115.319 17.2036C115.043 17.0907 114.747 17.0335 114.449 17.0354H114.443ZM105.615 33.4625C104.525 33.4616 103.46 33.1377 102.554 32.5315C101.648 31.9253 100.942 31.0641 100.526 30.0568C100.109 29.0495 100 27.9413 100.213 26.8722C100.427 25.8032 100.952 24.8214 101.723 24.0508C102.494 23.2803 103.476 22.7556 104.545 22.5431C105.614 22.3307 106.722 22.44 107.73 22.8572C108.737 23.2744 109.597 23.9808 110.203 24.8872C110.809 25.7935 111.132 26.859 111.132 27.9491C111.132 29.4111 110.551 30.8133 109.518 31.8471C108.484 32.8809 107.082 33.4616 105.62 33.4616L105.615 33.4625Z" fill="#00E676"/>
<path d="M165.079 17.0354H163.42C163.018 17.0361 162.631 17.183 162.33 17.4487C162.029 17.7144 161.835 18.0806 161.784 18.4789C160.1 17.3109 158.109 16.6666 156.06 16.6271C153.15 16.6822 150.378 17.8764 148.339 19.9531C146.3 22.0298 145.157 24.8234 145.156 27.7337C145.154 30.6439 146.294 33.4387 148.331 35.5176C150.367 37.5965 153.138 38.7936 156.048 38.8518C158.067 38.8542 160.045 38.2843 161.754 37.2084V37.6707C161.753 37.7878 161.776 37.9039 161.82 38.0123C161.865 38.1207 161.93 38.2192 162.013 38.3022C162.095 38.3852 162.193 38.4511 162.302 38.496C162.41 38.541 162.526 38.5641 162.643 38.5641H165.419C165.929 38.5641 166.419 38.3613 166.78 38.0002C167.141 37.6392 167.344 37.1495 167.344 36.6389V19.299C167.344 19.0016 167.286 18.707 167.172 18.4322C167.059 18.1574 166.892 17.9077 166.682 17.6974C166.472 17.4871 166.222 17.3204 165.947 17.2068C165.672 17.0932 165.378 17.035 165.08 17.0354H165.079ZM156.251 33.4625C155.161 33.463 154.095 33.1401 153.188 32.5347C152.281 31.9294 151.574 31.0686 151.157 30.0615C150.739 29.0543 150.629 27.9458 150.842 26.8764C151.054 25.8069 151.579 24.8244 152.35 24.0532C153.12 23.282 154.102 22.7566 155.172 22.5436C156.241 22.3306 157.35 22.4395 158.357 22.8566C159.365 23.2736 160.226 23.98 160.832 24.8865C161.438 25.793 161.761 26.8588 161.761 27.9491C161.761 29.4111 161.18 30.8133 160.147 31.8471C159.113 32.8809 157.711 33.4616 156.249 33.4616L156.251 33.4625Z" fill="#00E676"/>
<path d="M132.906 16.9038C130.869 16.8347 128.853 17.3346 127.085 18.3473V18.1237C127.084 17.881 126.987 17.6486 126.815 17.4771C126.644 17.3055 126.411 17.2086 126.169 17.2075H123.474C122.941 17.2075 122.43 17.4192 122.053 17.7961C121.676 18.173 121.464 18.6841 121.464 19.2171V36.7122C121.464 36.9552 121.511 37.1959 121.604 37.4206C121.696 37.6453 121.832 37.8494 122.004 38.0214C122.176 38.1935 122.38 38.3299 122.604 38.4231C122.828 38.5162 123.069 38.5641 123.312 38.5641H125.322C125.787 38.5641 126.234 38.3791 126.563 38.0499C126.892 37.7206 127.077 37.2741 127.077 36.8084V27.7424C127.077 21.1786 135.909 20.6513 135.808 26.287V36.73C135.808 37.2154 136.001 37.681 136.344 38.0245C136.687 38.3681 137.152 38.5615 137.637 38.5624H139.563C140.03 38.5613 140.477 38.375 140.807 38.0445C141.137 37.7139 141.322 37.2661 141.322 36.7991V26.2254C141.322 26.2254 141.738 16.9038 132.906 16.9038Z" fill="#00E676"/>
<path d="M31.5027 10.2793C31.5027 8.55898 30.1084 7.16443 28.3883 7.16443C26.6683 7.16443 25.2739 8.55898 25.2739 10.2793V19.9266C25.2739 21.6469 26.6683 23.0414 28.3883 23.0414C30.1084 23.0414 31.5027 21.6469 31.5027 19.9266V10.2793Z" fill="#00E676"/>
</svg>
