<svg width="16" height="15" viewBox="0 0 16 15" fill="none" xmlns="http://www.w3.org/2000/svg"><path d="M8.43583 3.65419C10.5641 3.65419 12.2808 5.37125 12.2808 7.5C12.2808 9.62875 10.5641 11.3458 8.43583 11.3458C6.30755 11.3458 4.59087 9.62875 4.59087 7.5C4.59087 5.37125 6.30755 3.65419 8.43583 3.65419ZM8.43583 10.0003C9.81117 10.0003 10.9355 8.879 10.9355 7.5C10.9355 6.121 9.81452 4.99972 8.43583 4.99972C7.05713 4.99972 5.93611 6.121 5.93611 7.5C5.93611 8.879 7.06048 10.0003 8.43583 10.0003V10.0003ZM3.53677 3.49688C3.53677 3.99559 3.93834 4.3939 4.43359 4.3939C4.9322 4.3939 5.33042 3.99225 5.33042 3.49688C5.33042 3.00151 4.92885 2.59985 4.43359 2.59985C3.93834 2.59985 3.53677 3.00151 3.53677 3.49688ZM0.990204 4.40729C1.04709 3.20568 1.32149 2.1413 2.20158 1.26436C3.07832 0.387426 4.14246 0.112964 5.3438 0.0527167C6.58195 -0.0175722 10.293 -0.0175722 11.5312 0.0527167C12.7292 0.109617 13.7933 0.384079 14.6734 1.26102C15.5535 2.13796 15.8246 3.20233 15.8848 4.40394C15.9551 5.64236 15.9551 9.35429 15.8848 10.5927C15.8279 11.7943 15.5535 12.8587 14.6734 13.7356C13.7933 14.6126 12.7325 14.887 11.5312 14.9473C10.293 15.0176 6.58195 15.0176 5.3438 14.9473C4.14246 14.8904 3.07832 14.6159 2.20158 13.7356C1.32484 12.8587 1.05044 11.7943 0.990204 10.5927C0.91993 9.35429 0.91993 5.64571 0.990204 4.40729V4.40729ZM2.58976 11.9215C2.85077 12.5775 3.35607 13.083 4.0153 13.3474C5.00247 13.739 7.34492 13.6486 8.43583 13.6486C9.52674 13.6486 11.8725 13.7356 12.8564 13.3474C13.5122 13.0863 14.0175 12.5809 14.2819 11.9215C14.6734 10.9341 14.5831 8.59115 14.5831 7.5C14.5831 6.40885 14.6701 4.06253 14.2819 3.07849C14.0209 2.42246 13.5156 1.91705 12.8564 1.65263C11.8692 1.26102 9.52674 1.35139 8.43583 1.35139C7.34492 1.35139 4.99913 1.26436 4.0153 1.65263C3.35942 1.9137 2.85412 2.41911 2.58976 3.07849C2.19824 4.06588 2.28859 6.40885 2.28859 7.5C2.28859 8.59115 2.19824 10.9375 2.58976 11.9215Z" fill="#00B5A5"/></svg>