<svg width="17" height="16" viewBox="0 0 17 16" fill="none" xmlns="http://www.w3.org/2000/svg"><path d="M15.7857 1.38003e-06L1.21049 1.05824e-07C0.542634 4.74386e-08 -4.52725e-08 0.517857 -1.00848e-07 1.15357L-1.29792e-06 14.8464C-1.35349e-06 15.4821 0.542633 16 1.21049 16L15.7857 16C16.4536 16 17 15.4821 17 14.8464L17 1.15357C17 0.517859 16.4536 1.43842e-06 15.7857 1.38003e-06ZM5.13795 13.7143L2.6183 13.7143L2.6183 6.07857L5.14174 6.07857L5.14174 13.7143L5.13795 13.7143ZM3.87812 5.03571C3.06987 5.03571 2.41719 4.41786 2.41719 3.66071C2.41719 2.90357 3.06987 2.28571 3.87812 2.28571C4.68259 2.28571 5.33906 2.90357 5.33906 3.66071C5.33906 4.42143 4.68638 5.03571 3.87812 5.03571ZM14.5828 13.7143L12.0632 13.7143L12.0632 10C12.0632 9.11429 12.0442 7.975 10.754 7.975C9.44107 7.975 9.23995 8.93929 9.23995 9.93571L9.23995 13.7143L6.72031 13.7143L6.72031 6.07857L9.1375 6.07857L9.1375 7.12143L9.17165 7.12143C9.50937 6.52143 10.3328 5.88929 11.5585 5.88929C14.1085 5.88929 14.5828 7.47143 14.5828 9.52857L14.5828 13.7143Z" fill="#00B5A5"/></svg>
