<svg width="145" height="20" viewBox="0 0 145 20" fill="none" xmlns="http://www.w3.org/2000/svg">
<path d="M4.75006 0V4.75006L0 0H4.75006Z" fill="#00B5A5"/>
<path d="M72.5009 4.74854H77.251L72.5009 9.74859V4.74854Z" fill="#00B5A5"/>
<path d="M83.0008 4.74854H88.0009L83.0008 9.74859V4.74854Z" fill="#00B5A5"/>
<path d="M1.75003 7.85596V19.9987H4.75006V4.74854L1.75003 7.85596Z" fill="white"/>
<path d="M16.6196 4.76696C15.1438 4.76696 13.5415 5.34527 12.3813 6.28601V4.74854H9.25014V19.9987H12.3813V9.3092C13.354 8.24121 14.5407 7.72257 15.9989 7.72257C18.4333 7.72257 19.6164 9.00644 19.6164 11.6496V19.9987H22.7503V11.1872C22.7503 6.92751 20.6855 4.76696 16.6196 4.76696Z" fill="white"/>
<path d="M39.7504 4.74854H36.3932L32.0011 15.2889L27.3927 4.74854H23.7503L30.7843 19.9364L30.8135 19.9987H33.0307L39.7504 4.74854Z" fill="white"/>
<path d="M46.9824 4.74854C44.6567 4.74854 42.8113 5.48384 41.5002 6.9334C40.1734 8.36628 39.5005 10.1967 39.5005 12.3736C39.5005 14.655 40.2188 16.524 41.6344 17.9183C43.0501 19.3125 44.8973 19.9987 47.2596 19.9987C49.4694 19.9987 51.2965 19.3538 52.6913 18.0823L52.856 17.9297L51.4822 15.6483C50.5233 16.5591 49.1617 17.0206 47.4444 17.0206C45.0036 17.0206 43.2942 15.6667 42.9629 13.4775H53.5412L53.5926 13.2142C53.7016 12.6408 53.7544 12.058 53.7504 11.4742C53.7504 9.5061 53.094 7.88193 51.8004 6.64823C50.5251 5.38557 48.9011 4.74854 46.9824 4.74854ZM50.5181 10.803H42.8269C43.2244 8.89978 44.7578 7.72486 46.8586 7.72486C48.9595 7.72486 50.2827 8.84713 50.5181 10.8056V10.803Z" fill="white"/>
<path d="M87.162 16.3756C86.6035 16.8245 85.9094 17.0699 85.1936 17.0715C83.7676 17.0715 83.0751 16.0573 83.0751 13.9714V0.75L80.001 3.83094V14.2159C80.001 18.1614 81.4669 20.0002 84.6147 20.0002C86.0623 20.0002 87.3051 19.5853 88.318 18.7685L88.5011 18.6198L87.4943 16.1182L87.162 16.3756Z" fill="white"/>
<path d="M76.661 16.3756C76.1026 16.8247 75.4085 17.07 74.6926 17.0715C73.2675 17.0715 72.5741 16.0573 72.5741 13.9714V0.75L69.5009 3.83094V14.2159C69.5009 18.1614 70.9668 20.0002 74.1146 20.0002C75.5614 20.0002 76.805 19.5853 77.8179 18.7685L78.001 18.6198L76.9942 16.1182L76.661 16.3756Z" fill="white"/>
<path d="M114.876 4.74854C112.553 4.74854 110.634 5.4813 109.172 6.92488C107.732 8.34827 107.001 10.1815 107.001 12.3727C107.001 14.564 107.732 16.3981 109.174 17.8548C110.646 19.2774 112.565 19.9987 114.876 19.9987C117.188 19.9987 119.107 19.2765 120.548 17.8522C122.031 16.3876 122.752 14.5947 122.752 12.3727C122.752 10.1701 122.011 8.33599 120.55 6.92663C119.119 5.48129 117.209 4.74854 114.876 4.74854ZM119.421 12.3727C119.421 15.1081 117.556 17.0185 114.876 17.0185C113.539 17.0185 112.434 16.5798 111.59 15.7206C110.745 14.8615 110.332 13.7567 110.332 12.3727C110.332 10.9888 110.766 9.87347 111.623 9.02662C112.466 8.16486 113.561 7.72784 114.878 7.72784C116.196 7.72784 117.29 8.16662 118.132 9.02662C118.999 9.91559 119.421 11.0099 119.421 12.3727Z" fill="white"/>
<path d="M97.2503 4.74854C94.9651 4.74854 93.0767 5.4813 91.6377 6.92488C90.2197 8.34827 89.5011 10.1815 89.5011 12.3727C89.5011 14.564 90.2197 16.3981 91.6404 17.8557C93.089 19.2774 94.9764 19.9987 97.2503 19.9987C99.5373 19.9987 101.415 19.2765 102.834 17.8522C104.292 16.3876 105.001 14.5947 105.001 12.3727C105.001 10.1701 104.272 8.33599 102.836 6.92663C101.427 5.48129 99.5478 4.74854 97.2503 4.74854ZM101.722 12.3727C101.722 15.1081 99.8861 17.0185 97.2477 17.0185C95.9363 17.0185 94.8444 16.5798 94.013 15.7206C93.1816 14.8615 92.7725 13.7584 92.7725 12.3727C92.7725 10.9871 93.1991 9.87347 94.0427 9.02662C94.8724 8.16486 95.9503 7.72784 97.2451 7.72784C98.5398 7.72784 99.6186 8.16662 100.448 9.02662C101.309 9.91559 101.722 11.0099 101.722 12.3727Z" fill="white"/>
<path d="M131.415 16.5096C130.847 16.8801 130.322 17.0689 129.858 17.0689C129.219 17.0689 128.566 16.7836 128.566 14.6708V0.75L125.501 3.83094V15.7728C125.501 18.5781 126.65 20.0002 128.917 20.0002C130.282 20.0002 131.4 19.6375 132.334 18.8929L132.501 18.7581L131.773 16.28L131.415 16.5096Z" fill="white"/>
<path d="M140.051 10.9397L140.017 11.0415L140.05 10.9397C138.536 10.45 137.227 10.0261 137.227 8.98712C137.227 8.15432 138.014 7.5725 139.133 7.5725C140.362 7.5725 141.437 7.99285 142.42 8.859L142.706 9.11086L144.225 6.66687L144.033 6.48434C142.802 5.31719 141.158 4.74854 139.009 4.74854C135.981 4.74854 133.946 6.46415 133.946 9.01871C133.946 12.1779 136.618 13.0458 138.769 13.7435C140.22 14.213 141.473 14.621 141.473 15.5732C141.473 16.6798 140.391 17.1738 139.319 17.1738C138.699 17.1738 138.007 17.0097 137.219 16.6736C136.499 16.3551 135.918 15.954 135.536 15.5152L135.282 15.2186L133.55 17.4195L133.502 17.4792L133.627 17.6758C134 18.2523 134.703 18.7797 135.778 19.2861C136.801 19.7591 137.914 20.0023 139.04 19.9987C140.653 19.9987 142.008 19.6231 143.065 18.8824C144.184 18.1005 144.752 16.9457 144.752 15.4486C144.753 12.4631 142.146 11.618 140.051 10.9397Z" fill="white"/>
<path d="M62.0477 10.9397C60.5325 10.45 59.2273 10.0253 59.2273 8.98712C59.2273 8.15432 60.0146 7.5725 61.1326 7.5725C62.3574 7.5725 63.436 7.99285 64.4193 8.859L64.7054 9.10998L66.2258 6.66687L66.0334 6.48434C64.8025 5.31719 63.1596 4.74854 61.011 4.74854C57.9833 4.74854 55.9494 6.46415 55.9494 9.01871C55.9494 12.1779 58.621 13.0458 60.7705 13.7435C62.2209 14.213 63.4745 14.621 63.4745 15.5732C63.4745 16.6798 62.3924 17.1738 61.3207 17.1738C60.6996 17.1738 60.0085 17.0097 59.2212 16.6736C58.5012 16.3551 57.9194 15.954 57.5398 15.5152L57.2835 15.2186L55.5006 17.4792L55.6257 17.6758C55.9983 18.2523 56.7008 18.7797 57.776 19.2861C58.7984 19.7591 59.9114 20.0023 61.0373 19.9987C62.6504 19.9987 64.0047 19.6231 65.0614 18.8824C66.1821 18.1005 66.7507 16.9448 66.7507 15.4486C66.7507 12.4631 64.1429 11.618 62.0477 10.9397Z" fill="white"/>
</svg>
