<svg width="183" height="26" viewBox="0 0 183 26" fill="none" xmlns="http://www.w3.org/2000/svg">
<path d="M91.6427 6.42173H97.7872L91.6427 12.5729V6.42173Z" fill="#00B5A5"/>
<path d="M105.056 6.42173H111.196L105.056 12.5674V6.42173Z" fill="#00B5A5"/>
<path d="M2.22034 10.3548V25.7239H6.15454V6.42173L2.22034 10.3548Z" fill="#295965"/>
<path d="M21.0672 6.44506C19.2134 6.44506 17.2007 7.17702 15.7434 8.36772V6.42173H11.8104V25.7239H15.7434V12.1942C16.9652 10.8424 18.4558 10.186 20.2874 10.186C23.3453 10.186 24.8314 11.811 24.8314 15.1565V25.7239H28.7678V14.5711C28.7678 9.17966 26.1743 6.44506 21.0672 6.44506Z" fill="#295965"/>
<path d="M50.1349 6.42173H45.9119L40.3871 19.7627L34.5902 6.42173H30.0085L38.8565 25.6451L38.8932 25.7239H41.6822L50.1349 6.42173Z" fill="#295965"/>
<path d="M59.3528 6.42173C56.3894 6.42173 54.038 7.35252 52.3674 9.18744C50.6769 11.0013 49.8194 13.3182 49.8194 16.0739C49.8194 18.9618 50.7347 21.3277 52.5385 23.0926C54.3423 24.8576 56.6959 25.7262 59.706 25.7262C62.5217 25.7262 64.8498 24.9098 66.6269 23.3003L66.8369 23.1071L65.0864 20.2192C63.8646 21.3721 62.1296 21.9564 59.9415 21.9564C56.8314 21.9564 54.6533 20.2425 54.2312 17.4712H67.7099L67.7754 17.138C67.9143 16.4122 67.9816 15.6744 67.9765 14.9355C67.9765 12.4441 67.1401 10.3881 65.4918 8.82645C63.8668 7.22812 61.7975 6.42173 59.3528 6.42173ZM63.8579 14.0857H54.058C54.5645 11.6766 56.5182 10.1893 59.1951 10.1893C61.8719 10.1893 63.558 11.6099 63.8579 14.0891V14.0857Z" fill="#295965"/>
<path d="M110.284 21.0955C109.569 21.6687 108.681 21.9821 107.765 21.9841C105.94 21.9841 105.054 20.689 105.054 18.0255C105.054 11.4322 105.054 7.73567 105.054 1.14243L101.119 5.07662V18.3376C101.119 23.3758 102.995 25.7239 107.024 25.7239C108.877 25.7239 110.467 25.1941 111.764 24.1511L111.998 23.9612L110.709 20.7667L110.284 21.0955Z" fill="#295965"/>
<path d="M96.8732 21.0955C96.1585 21.6689 95.2702 21.9822 94.354 21.9841C92.5302 21.9841 91.6427 20.689 91.6427 18.0255V1.14243L87.7097 5.07662V18.3376C87.7097 23.3758 89.5857 25.7239 93.6143 25.7239C95.4659 25.7239 97.0575 25.1941 98.3538 24.1511L98.5881 23.9612L97.2997 20.7667L96.8732 21.0955Z" fill="#295965"/>
<path d="M145.19 6.42173C142.284 6.42173 139.885 7.34919 138.057 9.17633C136.256 10.9779 135.343 13.2982 135.343 16.0717C135.343 18.8452 136.256 21.1666 138.06 23.0104C139.9 24.8109 142.3 25.7239 145.19 25.7239C148.08 25.7239 150.479 24.8098 152.282 23.0071C154.136 21.1533 155.036 18.8841 155.036 16.0717C155.036 13.2838 154.11 10.9624 152.284 9.17855C150.495 7.34919 148.106 6.42173 145.19 6.42173ZM150.872 16.0717C150.872 19.5339 148.54 21.9519 145.19 21.9519C143.518 21.9519 142.136 21.3965 141.08 20.3091C140.024 19.2217 139.507 17.8233 139.507 16.0717C139.507 14.3201 140.05 12.9084 141.122 11.8365C142.176 10.7458 143.545 10.1926 145.192 10.1926C146.839 10.1926 148.208 10.748 149.261 11.8365C150.345 12.9617 150.872 14.3468 150.872 16.0717Z" fill="#295965"/>
<path d="M123.163 6.42173C120.259 6.42173 117.86 7.34919 116.032 9.17633C114.23 10.9779 113.317 13.2982 113.317 16.0717C113.317 18.8452 114.23 21.1666 116.035 23.0115C117.876 24.8109 120.274 25.7239 123.163 25.7239C126.069 25.7239 128.454 24.8098 130.257 23.0071C132.11 21.1533 133.011 18.8841 133.011 16.0717C133.011 13.2838 132.084 10.9624 130.259 9.17855C128.47 7.34919 126.082 6.42173 123.163 6.42173ZM128.844 16.0717C128.844 19.5339 126.512 21.9519 123.16 21.9519C121.493 21.9519 120.106 21.3965 119.05 20.3091C117.994 19.2217 117.474 17.8256 117.474 16.0717C117.474 14.3179 118.016 12.9084 119.088 11.8365C120.142 10.7458 121.511 10.1926 123.156 10.1926C124.801 10.1926 126.172 10.748 127.226 11.8365C128.319 12.9617 128.844 14.3468 128.844 16.0717Z" fill="#295965"/>
<path d="M166.214 21.2666C165.484 21.7397 164.81 21.9808 164.214 21.9808C163.393 21.9808 162.556 21.6165 162.556 18.9185V1.14243L158.622 5.07662V20.3258C158.622 23.9079 160.097 25.7239 163.006 25.7239C164.759 25.7239 166.194 25.2607 167.393 24.31L167.608 24.1378L166.672 20.9733L166.214 21.2666Z" fill="#295965"/>
<path d="M177.032 14.2579L176.99 14.3868L177.031 14.2579C175.109 13.6381 173.448 13.1016 173.448 11.7865C173.448 10.7325 174.447 9.99605 175.867 9.99605C177.427 9.99605 178.791 10.5281 180.04 11.6244L180.403 11.9432L182.331 8.84978L182.087 8.61875C180.524 7.14148 178.438 6.42173 175.71 6.42173C171.866 6.42173 169.284 8.5932 169.284 11.8265C169.284 15.8251 172.675 16.9237 175.405 17.8067C177.248 18.4009 178.838 18.9174 178.838 20.1225C178.838 21.5232 177.464 22.1485 176.103 22.1485C175.316 22.1485 174.437 21.9408 173.438 21.5154C172.524 21.1122 171.786 20.6046 171.302 20.0492L170.979 19.6738L168.78 22.4595L168.719 22.535L168.878 22.7838C169.351 23.5136 170.244 24.1811 171.608 24.822C172.906 25.4207 174.32 25.7285 175.749 25.7239C177.796 25.7239 179.517 25.2485 180.859 24.3111C182.279 23.3214 183 21.8597 183 19.9648C183.001 16.1861 179.692 15.1165 177.032 14.2579Z" fill="#295965"/>
<path d="M78.4439 14.2579C76.5202 13.6381 74.863 13.1005 74.863 11.7865C74.863 10.7325 75.8626 9.99605 77.2821 9.99605C78.8371 9.99605 80.2067 10.5281 81.4551 11.6244L81.8183 11.942L83.7488 8.84978L83.5044 8.61875C81.9416 7.14148 79.8557 6.42173 77.1277 6.42173C73.2835 6.42173 70.7011 8.5932 70.7011 11.8265C70.7011 15.8251 74.0932 16.9237 76.8223 17.8067C78.6639 18.4009 80.2555 18.9174 80.2555 20.1225C80.2555 21.5232 78.8816 22.1485 77.5209 22.1485C76.7323 22.1485 75.8548 21.9408 74.8552 21.5154C73.9411 21.1122 73.2024 20.6046 72.7204 20.0492L72.3949 19.6738L70.1313 22.535L70.2901 22.7838C70.7633 23.5136 71.6552 24.1811 73.0203 24.822C74.3184 25.4207 75.7316 25.7285 77.1611 25.7239C79.2092 25.7239 80.9286 25.2485 82.2704 24.3111C83.6932 23.3214 84.4152 21.8586 84.4152 19.9648C84.4152 16.1861 81.1041 15.1165 78.4439 14.2579Z" fill="#295965"/>
<path d="M6.15454 0.273846V6.4195L0 0.273846H6.15454Z" fill="#00B5A5"/>
</svg>
