<svg width="61" height="195" viewBox="0 0 61 195" fill="none" xmlns="http://www.w3.org/2000/svg">
<g id="Pattern Square">
<rect id="Square" x="60.1595" y="168.032" width="6.2234" height="6.2234" transform="rotate(180 60.1595 168.032)" fill="#295965"/>
<rect id="Square_2" x="60.1595" y="60.1597" width="6.2234" height="6.2234" transform="rotate(180 60.1595 60.1597)" fill="#295965"/>
<rect id="Square_3" x="60.1595" y="114.096" width="6.2234" height="6.2234" transform="rotate(180 60.1595 114.096)" fill="#295965"/>
<rect id="Square_4" x="60.1595" y="6.22339" width="6.2234" height="6.2234" transform="rotate(180 60.1595 6.22339)" fill="#295965"/>
<rect id="Square_5" x="6.22339" y="168.032" width="6.2234" height="6.2234" transform="rotate(180 6.22339 168.032)" fill="#295965"/>
<rect id="Square_6" x="6.22339" y="60.1597" width="6.2234" height="6.2234" transform="rotate(180 6.22339 60.1597)" fill="#295965"/>
<rect id="Square_7" x="6.22339" y="114.096" width="6.2234" height="6.2234" transform="rotate(180 6.22339 114.096)" fill="#295965"/>
<rect id="Square_8" x="6.22339" y="6.22339" width="6.2234" height="6.2234" transform="rotate(180 6.22339 6.22339)" fill="#295965"/>
<rect id="Square_9" x="33.1915" y="168.032" width="6.2234" height="6.2234" transform="rotate(180 33.1915 168.032)" fill="#295965"/>
<rect id="Square_10" x="33.1915" y="60.1597" width="6.2234" height="6.2234" transform="rotate(180 33.1915 60.1597)" fill="#295965"/>
<rect id="Square_11" x="33.1915" y="114.096" width="6.2234" height="6.2234" transform="rotate(180 33.1915 114.096)" fill="#295965"/>
<rect id="Square_12" x="33.1915" y="6.22339" width="6.2234" height="6.2234" transform="rotate(180 33.1915 6.22339)" fill="#295965"/>
<rect id="Square_13" x="60.1595" y="195" width="6.2234" height="6.2234" transform="rotate(180 60.1595 195)" fill="#295965"/>
<rect id="Square_14" x="60.1595" y="87.1277" width="6.2234" height="6.2234" transform="rotate(180 60.1595 87.1277)" fill="#295965"/>
<rect id="Square_15" x="60.1595" y="141.064" width="6.2234" height="6.2234" transform="rotate(180 60.1595 141.064)" fill="#295965"/>
<rect id="Square_16" x="60.1595" y="33.1915" width="6.2234" height="6.2234" transform="rotate(180 60.1595 33.1915)" fill="#295965"/>
<rect id="Square_17" x="6.22339" y="195" width="6.2234" height="6.2234" transform="rotate(180 6.22339 195)" fill="#295965"/>
<rect id="Square_18" x="6.22339" y="87.1277" width="6.2234" height="6.2234" transform="rotate(180 6.22339 87.1277)" fill="#295965"/>
<rect id="Square_19" x="6.22339" y="141.064" width="6.2234" height="6.2234" transform="rotate(180 6.22339 141.064)" fill="#295965"/>
<rect id="Square_20" x="6.22339" y="33.1915" width="6.2234" height="6.2234" transform="rotate(180 6.22339 33.1915)" fill="#295965"/>
<rect id="Square_21" x="33.1915" y="195" width="6.2234" height="6.2234" transform="rotate(180 33.1915 195)" fill="#295965"/>
<rect id="Square_22" x="33.1915" y="87.1277" width="6.2234" height="6.2234" transform="rotate(180 33.1915 87.1277)" fill="#295965"/>
<rect id="Square_23" x="33.1915" y="141.064" width="6.2234" height="6.2234" transform="rotate(180 33.1915 141.064)" fill="#295965"/>
<rect id="Square_24" x="33.1915" y="33.1915" width="6.2234" height="6.2234" transform="rotate(180 33.1915 33.1915)" fill="#295965"/>
</g>
</svg>
