<svg width="195" height="61" viewBox="0 0 195 61" fill="none" xmlns="http://www.w3.org/2000/svg">
<g id="Pattern Square">
<rect id="Square" x="26.968" y="60.1595" width="6.2234" height="6.2234" transform="rotate(-90 26.968 60.1595)" fill="#00B5A5"/>
<rect id="Square_2" x="134.84" y="60.1595" width="6.2234" height="6.2234" transform="rotate(-90 134.84 60.1595)" fill="#00B5A5"/>
<rect id="Square_3" x="80.9043" y="60.1595" width="6.2234" height="6.2234" transform="rotate(-90 80.9043 60.1595)" fill="#00B5A5"/>
<rect id="Square_4" x="188.777" y="60.1595" width="6.2234" height="6.2234" transform="rotate(-90 188.777 60.1595)" fill="#00B5A5"/>
<rect id="Square_5" x="26.968" y="6.22339" width="6.2234" height="6.2234" transform="rotate(-90 26.968 6.22339)" fill="#00B5A5"/>
<rect id="Square_6" x="134.84" y="6.22339" width="6.2234" height="6.2234" transform="rotate(-90 134.84 6.22339)" fill="#00B5A5"/>
<rect id="Square_7" x="80.9043" y="6.22339" width="6.2234" height="6.2234" transform="rotate(-90 80.9043 6.22339)" fill="#00B5A5"/>
<rect id="Square_8" x="188.777" y="6.22339" width="6.2234" height="6.2234" transform="rotate(-90 188.777 6.22339)" fill="#00B5A5"/>
<rect id="Square_9" x="26.968" y="33.1915" width="6.2234" height="6.2234" transform="rotate(-90 26.968 33.1915)" fill="#00B5A5"/>
<rect id="Square_10" x="134.84" y="33.1915" width="6.2234" height="6.2234" transform="rotate(-90 134.84 33.1915)" fill="#00B5A5"/>
<rect id="Square_11" x="80.9043" y="33.1915" width="6.2234" height="6.2234" transform="rotate(-90 80.9043 33.1915)" fill="#00B5A5"/>
<rect id="Square_12" x="188.777" y="33.1915" width="6.2234" height="6.2234" transform="rotate(-90 188.777 33.1915)" fill="#00B5A5"/>
<rect id="Square_13" y="60.1595" width="6.2234" height="6.2234" transform="rotate(-90 0 60.1595)" fill="#00B5A5"/>
<rect id="Square_14" x="107.872" y="60.1595" width="6.2234" height="6.2234" transform="rotate(-90 107.872 60.1595)" fill="#00B5A5"/>
<rect id="Square_15" x="53.9362" y="60.1595" width="6.2234" height="6.2234" transform="rotate(-90 53.9362 60.1595)" fill="#00B5A5"/>
<rect id="Square_16" x="161.808" y="60.1595" width="6.2234" height="6.2234" transform="rotate(-90 161.808 60.1595)" fill="#00B5A5"/>
<rect id="Square_17" y="6.22339" width="6.2234" height="6.2234" transform="rotate(-90 0 6.22339)" fill="#00B5A5"/>
<rect id="Square_18" x="107.872" y="6.22339" width="6.2234" height="6.2234" transform="rotate(-90 107.872 6.22339)" fill="#00B5A5"/>
<rect id="Square_19" x="53.9362" y="6.22339" width="6.2234" height="6.2234" transform="rotate(-90 53.9362 6.22339)" fill="#00B5A5"/>
<rect id="Square_20" x="161.808" y="6.22339" width="6.2234" height="6.2234" transform="rotate(-90 161.808 6.22339)" fill="#00B5A5"/>
<rect id="Square_21" y="33.1915" width="6.2234" height="6.2234" transform="rotate(-90 0 33.1915)" fill="#00B5A5"/>
<rect id="Square_22" x="107.872" y="33.1915" width="6.2234" height="6.2234" transform="rotate(-90 107.872 33.1915)" fill="#00B5A5"/>
<rect id="Square_23" x="53.9362" y="33.1915" width="6.2234" height="6.2234" transform="rotate(-90 53.9362 33.1915)" fill="#00B5A5"/>
<rect id="Square_24" x="161.808" y="33.1915" width="6.2234" height="6.2234" transform="rotate(-90 161.808 33.1915)" fill="#00B5A5"/>
</g>
</svg>
