<svg width="259" height="60" viewBox="0 0 259 60" fill="none" xmlns="http://www.w3.org/2000/svg">
<path d="M0 50.8234V10.3336H13.7665C17.7364 10.3336 20.966 11.558 23.4551 14.0066C25.9443 16.4553 27.1879 19.5499 27.186 23.2903C27.186 27.0308 25.9424 30.1254 23.4551 32.5741C20.9679 35.0227 17.7384 36.247 13.7665 36.247H6.9411V50.8234H0ZM12.8989 29.653C15.2126 29.653 16.996 29.0842 18.2493 27.9467C19.5026 26.8091 20.1292 25.257 20.1292 23.2903C20.1292 21.3237 19.5026 19.7716 18.2493 18.634C16.996 17.4964 15.2126 16.9277 12.8989 16.9277H6.9411V29.653H12.8989Z" fill="#295965"/>
<path d="M42.3985 22.6973C44.2231 22.6637 46.035 23.0058 47.7217 23.7024C49.4084 24.399 50.9337 25.4351 52.2028 26.7463C54.8809 29.4456 56.221 32.8583 56.2229 36.9844C56.2229 38.0256 56.2036 38.8932 56.165 39.5873H35.6888C35.9954 40.9755 36.8534 42.2481 38.2628 43.4049C39.7082 44.5743 41.5233 45.1896 43.3819 45.1402C44.7565 45.1561 46.1228 44.9259 47.4164 44.4606C48.6696 43.9978 49.5662 43.5351 50.106 43.0723L50.9158 42.3782L54.3864 47.5841C53.956 47.9894 53.4915 48.3571 52.9982 48.6831C52.3793 49.1072 51.1164 49.6857 49.2095 50.4183C47.3561 51.1401 45.3852 51.5127 43.3963 51.5173C39.2317 51.5173 35.7322 50.1291 32.8979 47.3527C30.0636 44.5762 28.6465 41.1635 28.6465 37.1146C28.6465 33.0656 29.9576 29.6529 32.5798 26.8764C35.202 24.1 38.4749 22.707 42.3985 22.6973ZM35.6888 34.555H49.2818C49.2047 33.1668 48.5588 31.8943 47.3441 30.7374C46.1294 29.5806 44.4809 29.0022 42.3985 29.0022C40.3548 29.0022 38.7641 29.5709 37.6265 30.7085C36.5487 31.7232 35.8627 33.085 35.6888 34.555Z" fill="#295965"/>
<path d="M73.9198 22.6973C74.1714 22.6973 74.4086 22.6973 74.6284 22.7204C75.1599 22.7317 75.6885 22.8015 76.2046 22.9286C76.3839 22.9831 76.5588 23.0507 76.7281 23.1311L74.9581 29.4215C74.2969 29.2524 73.616 29.1726 72.9336 29.1843C72.202 29.1814 71.4749 29.2997 70.7819 29.5343C70.3519 29.6829 69.9389 29.8768 69.5498 30.1127C68.7072 30.5739 67.9688 31.2041 67.3807 31.9636L66.8023 32.8891V50.8203H59.8525V23.3914H66.4466V27.397C66.5247 27.2813 66.6201 27.1078 66.7358 26.9053C66.9932 26.5059 67.2834 26.1286 67.6034 25.7774C68.046 25.2564 68.5402 24.7816 69.0784 24.3602C69.7173 23.8903 70.4181 23.5107 71.1607 23.2323C72.0373 22.8777 72.9742 22.696 73.9198 22.6973Z" fill="#295965"/>
<path d="M102.523 26.8619C105.357 24.0855 108.818 22.6973 112.906 22.6973C116.993 22.6973 120.454 24.0855 123.288 26.8619C126.123 29.6384 127.54 33.0511 127.54 37.1C127.574 39.0029 127.213 40.8923 126.482 42.6492C125.75 44.4061 124.663 45.9927 123.288 47.3092C120.454 50.1069 116.993 51.5048 112.906 51.5028C108.818 51.5009 105.357 50.103 102.523 47.3092C101.148 45.9927 100.061 44.4061 99.3296 42.6492C98.598 40.8923 98.2377 39.0029 98.2715 37.1C98.2715 33.0511 99.6886 29.6384 102.523 26.8619ZM107.411 42.7108C108.799 44.2532 110.63 45.0245 112.906 45.0245C115.181 45.0245 117.012 44.2532 118.401 42.7108C119.786 41.175 120.531 39.1676 120.483 37.1C120.531 35.0325 119.786 33.0251 118.401 31.4893C117.012 29.9469 115.181 29.1756 112.906 29.1756C110.63 29.1756 108.799 29.9469 107.411 31.4893C106.025 33.0251 105.28 35.0325 105.328 37.1C105.277 39.1725 106.022 41.1858 107.411 42.7252V42.7108Z" fill="#295965"/>
<path d="M183.925 22.6973C186.78 22.6973 189.094 23.6325 190.866 25.5027C192.638 27.3729 193.525 29.9276 193.527 33.1668V50.8088H186.585V34.9599C186.585 31.1038 184.947 29.1757 181.669 29.1757C180.621 29.1664 179.595 29.4684 178.719 30.0433C177.968 30.4859 177.334 31.1005 176.868 31.8364L176.289 32.7041V50.8232H169.348V34.9744C169.348 31.1182 167.71 29.1901 164.432 29.1901C163.758 29.1857 163.09 29.3134 162.465 29.5661C161.922 29.7749 161.414 30.0677 160.961 30.4338C160.591 30.7468 160.243 31.085 159.92 31.446C159.673 31.7076 159.459 31.999 159.284 32.3136L159.052 32.7185V50.8232H152.111V23.3914H158.59V27.397C158.668 27.2813 158.772 27.1078 158.908 26.9054C159.192 26.5098 159.501 26.1331 159.833 25.7774C160.307 25.2451 160.841 24.7695 161.424 24.3603C162.135 23.8889 162.902 23.5099 163.709 23.2324C164.663 22.8838 165.672 22.7075 166.688 22.7118C167.844 22.7008 168.994 22.8666 170.1 23.2035C170.988 23.453 171.821 23.8649 172.559 24.4181C173.104 24.852 173.616 25.3257 174.091 25.8353C174.431 26.1807 174.723 26.5697 174.959 26.9921L175.19 27.5127C175.297 27.3451 175.394 27.1713 175.48 26.9921C175.743 26.5723 176.053 26.1841 176.405 25.8353C177.526 24.5987 178.967 23.6976 180.57 23.2324C181.652 22.8739 182.785 22.6932 183.925 22.6973Z" fill="#295965"/>
<path d="M145.24 22.6973C145.491 22.6973 145.726 22.6973 145.948 22.7204C146.48 22.7317 147.008 22.8015 147.524 22.9286C147.704 22.9836 147.878 23.0512 148.048 23.1311L146.278 29.4215C145.617 29.2525 144.936 29.1728 144.253 29.1843C143.521 29.1812 142.793 29.2994 142.099 29.5342C141.67 29.6824 141.257 29.8763 140.87 30.1127C140.027 30.5739 139.289 31.204 138.701 31.9636L138.122 32.8891V50.8203H131.181V23.3914H137.775V27.397C137.853 27.2813 137.949 27.1078 138.064 26.9053C138.322 26.5059 138.612 26.1286 138.932 25.7774C139.374 25.2564 139.869 24.7816 140.407 24.3602C141.046 23.8903 141.747 23.5107 142.489 23.2323C143.363 22.8788 144.297 22.6971 145.24 22.6973Z" fill="#295965"/>
<path d="M201.65 9.22587V50.777L258.698 60V0L201.65 9.22587Z" fill="#295965"/>
<path d="M223.798 12.5779V20.9911L215.374 12.5779H223.798Z" fill="#00B4A4"/>
<path d="M235.422 20.9968H243.838L235.422 29.4187V20.9968Z" fill="#00B4A4"/>
<path d="M218.413 26.3791V47.425H223.798V20.9968L218.413 26.3791Z" fill="white"/>
<path d="M242.635 41.0883C241.657 41.873 240.441 42.3024 239.187 42.3058C236.689 42.3058 235.474 40.533 235.474 36.886V13.7664L230.08 19.1544V37.3111C230.08 44.2117 232.648 47.4336 238.164 47.4336C240.7 47.4336 242.883 46.7105 244.653 45.2818L244.975 45.0215L243.213 40.6371L242.635 41.0883Z" fill="white"/>
<path d="M90.6362 21.1126C90.6362 20.5342 90.6362 19.9789 90.6362 19.412C90.6362 17.9081 91.0122 16.838 91.7641 16.2018C92.4398 15.5945 93.314 15.2551 94.2224 15.2474C95.3793 15.2474 96.3048 15.5173 96.9989 16.0572L99.6018 10.2151L98.9655 9.81019C98.2509 9.49784 97.5041 9.26507 96.7386 9.11608C95.6848 8.88112 94.608 8.76471 93.5283 8.76902C92.314 8.76113 91.1075 8.96368 89.9623 9.36769C88.7565 9.79685 87.6413 10.4471 86.674 11.2852C83.8252 13.8476 83.6951 17.7346 83.6835 18.5502V23.3916H78.2463V29.6386H83.6835V50.8234H90.6246V29.653H97.3343V23.3916H90.6246L90.6362 21.1126Z" fill="#295965"/>
</svg>
