<svg width="146" height="40" viewBox="0 0 146 40" fill="none" xmlns="http://www.w3.org/2000/svg">
<path d="M0.0201851 21.9985C0.0201851 16.5182 0.0437343 11.038 0 5.55772C0 4.58211 0.238857 4.27261 1.2582 4.28606C6.1228 4.33989 10.9874 4.23224 15.8486 4.33316C20.0505 4.42399 23.9227 5.46352 27.1355 8.45764C32.4509 13.4265 32.3903 25.8504 21.8268 29.1406C18.9 30.0523 15.8991 30.1499 12.8713 30.1095C11.6165 30.0826 10.3549 30.1398 9.1001 30.1095C8.39026 30.0792 8.17159 30.3046 8.18168 31.0212C8.22542 33.5746 8.18168 36.128 8.21532 38.6781C8.21532 39.5157 7.95292 39.7445 7.13879 39.7243C5.12028 39.6705 3.10177 39.6604 1.10345 39.7243C0.18503 39.758 0 39.4283 0.00336418 38.5839C0.037006 33.0464 0.0201851 27.5224 0.0201851 21.9985ZM8.1985 17.255V22.3887C8.1985 22.8059 8.11776 23.2869 8.76368 23.2668C11.8924 23.1524 15.0513 23.6267 18.1396 22.826C18.836 22.6698 19.4933 22.3736 20.0716 21.9555C20.6499 21.5373 21.1372 21.006 21.5038 20.3937C23.6569 16.747 21.8201 12.4442 17.6788 11.4888C14.7452 10.8159 11.7578 11.26 8.79733 11.1524C8.16486 11.1288 8.19514 11.5661 8.19514 12.0035C8.20187 13.7461 8.1985 15.4989 8.1985 17.255Z" fill="#363636"/>
<path d="M119.886 39.9865C114.806 39.9159 110.396 38.3044 107.341 34.0689C101.306 25.6585 106.423 13.8839 116.697 12.3397C119.96 11.8485 123.132 12.0033 126.19 13.3153C128.449 14.2651 130.329 15.9353 131.54 18.0655C131.98 18.8258 131.994 19.2766 131.075 19.6938C129.666 20.3352 128.296 21.0609 126.974 21.8671C126.231 22.3246 125.888 22.1867 125.393 21.5306C123.408 18.8393 120.65 17.9377 117.534 18.9032C116.451 19.2451 115.474 19.8617 114.698 20.693C112.495 22.9941 112.118 27.5996 113.904 30.4222C115.56 33.0328 118.924 34.1699 122.1 33.201C123.447 32.8233 124.604 31.9543 125.343 30.7653C125.857 29.9142 126.325 30.0016 127.025 30.4289C128.37 31.1993 129.716 31.9529 131.116 32.6324C131.913 33.0227 131.994 33.4196 131.546 34.1598C129.645 37.3086 126.769 38.9806 123.257 39.714C122.149 39.9451 121.017 40.0366 119.886 39.9865Z" fill="#363636"/>
<path d="M76.999 29.5172C76.999 32.545 76.9586 35.5425 77.0225 38.5568C77.0461 39.529 76.7366 39.7477 75.8181 39.7107C73.9342 39.6401 72.0435 39.6602 70.1562 39.7107C69.4195 39.7309 69.147 39.5694 69.147 38.7553C69.1773 29.5913 69.1167 20.4239 69.184 11.2598C69.2277 5.20432 73.988 1.3086 80.4944 1.86706C81.9624 1.95767 83.4029 2.30614 84.75 2.8965C85.3186 3.1589 85.6079 3.48859 85.3354 4.16816C84.8106 5.48691 84.3261 6.82249 83.8518 8.15807C83.6466 8.72998 83.4178 8.99575 82.7652 8.61224C82.026 8.20606 81.1887 8.01275 80.3463 8.05378C79.7975 8.03735 79.2522 8.14692 78.7523 8.3741C78.2524 8.60127 77.8112 8.94 77.4626 9.36426C77.1141 9.78852 76.8674 10.287 76.7415 10.8215C76.6156 11.356 76.614 11.9122 76.7366 12.4474C76.861 13.1202 77.295 13.0563 77.7458 13.053C79.4279 13.053 81.11 13.09 82.7921 13.053C83.5591 13.026 83.8316 13.2514 83.8013 14.0353C83.7441 15.4146 83.7341 16.7973 83.8013 18.1766C83.8484 19.1118 83.4649 19.3002 82.6205 19.2733C81.0696 19.2229 79.5154 19.2969 77.9645 19.243C77.1773 19.2161 76.9754 19.5021 76.9855 20.2523C77.0393 23.3204 76.999 26.4188 76.999 29.5172Z" fill="#363636"/>
<path d="M49.7091 33.4602C49.837 35.2197 49.9615 36.9623 50.0893 38.705C50.1113 38.7961 50.1141 38.8908 50.0974 38.983C50.0807 39.0753 50.0449 39.163 49.9923 39.2406C49.9398 39.3182 49.8716 39.384 49.7921 39.4337C49.7126 39.4834 49.6236 39.5159 49.5308 39.5292C46.604 40.3703 41.4837 40.2727 38.7857 37.4569C37.2752 35.9691 36.4131 33.9452 36.387 31.8252C36.3365 22.2407 36.387 12.6494 36.3433 3.07496C36.3433 2.32475 36.5989 2.16327 37.2819 2.17673C39.1692 2.21373 41.0598 2.24401 42.9438 2.17673C43.9194 2.13636 44.1986 2.40213 44.1953 3.40465C44.1515 11.8992 44.2827 20.3971 44.1212 28.8917C44.0472 32.6999 45.4467 34.5334 49.7091 33.4602Z" fill="#363636"/>
<path d="M61.8235 25.9914C61.8235 30.2168 61.8033 34.4388 61.8235 38.6642C61.8235 39.475 61.6183 39.7374 60.784 39.7105C58.8563 39.6466 56.9253 39.6432 55.001 39.7105C54.1364 39.7408 53.9917 39.4313 53.9917 38.6441C54.0186 30.2359 54.0186 21.8254 53.9917 13.4127C53.9917 12.5919 54.1936 12.316 55.038 12.3429C56.8782 12.4035 58.7386 12.4136 60.5687 12.3429C61.5275 12.3025 61.8538 12.5347 61.837 13.5608C61.7865 17.7121 61.8235 21.8669 61.8235 25.9914Z" fill="#363636"/>
<path d="M91.674 26.0082C91.674 21.9107 91.7043 17.8131 91.6572 13.7155C91.6572 12.7063 91.849 12.2925 92.9592 12.3497C94.7994 12.4439 96.6598 12.4102 98.4899 12.3497C99.3006 12.3295 99.5866 12.5683 99.5866 13.406C99.5597 21.8142 99.5597 30.2191 99.5866 38.6205C99.5866 39.4178 99.3948 39.724 98.5403 39.6971C96.616 39.6399 94.685 39.6298 92.7607 39.6971C91.8288 39.7307 91.6572 39.3607 91.664 38.5398C91.6942 34.3716 91.674 30.1899 91.674 26.0082Z" fill="#363636"/>
<path d="M140.579 30.106C143.432 30.106 145.484 32.1581 145.474 35.0177C145.464 37.8772 143.378 39.963 140.572 39.9731C137.766 39.9832 135.707 37.8705 135.697 35.0143C135.687 32.1581 137.689 30.1093 140.579 30.106Z" fill="#EBBE3F"/>
<path d="M57.8939 0C60.7837 0 62.7786 1.71573 62.782 4.21868C62.782 6.80237 60.7635 8.66612 57.9376 8.69304C55.1117 8.71995 52.9687 6.79901 53.0023 4.29606C53.036 1.79311 55.105 0 57.8939 0Z" fill="#363636"/>
<path d="M95.6337 0C98.4159 0 100.471 1.75274 100.505 4.13794C100.542 6.75191 98.4428 8.69977 95.5933 8.68967C92.8111 8.68967 90.7489 6.8562 90.7287 4.38016C90.7052 1.83011 92.7607 0 95.6337 0Z" fill="#363636"/>
</svg>
