<svg width="196" height="45" viewBox="0 0 196 45" fill="none" xmlns="http://www.w3.org/2000/svg">
<path d="M62.6689 16.5559H67.6263L68.702 18.3331C73.622 14.9237 76.6105 14.9517 80.8289 18.5154C81.465 18.0478 82.1244 17.5801 82.8259 17.1124C87.8909 13.8948 94.1999 16.7196 94.6863 22.7246C95.0744 27.5884 94.7611 32.5131 94.7611 37.5266H87.4793C87.4793 34.6176 87.4793 31.8256 87.4793 29.0335C87.4793 27.551 87.4466 26.0685 87.3764 24.5906C87.3203 23.4167 86.9088 22.4019 85.5946 22.1914C84.9736 22.0487 84.3213 22.1555 83.7782 22.4887C83.2351 22.8219 82.8444 23.355 82.6903 23.9733C82.407 24.9424 82.2652 25.9474 82.2694 26.9571C82.2179 30.4413 82.2694 33.9301 82.2694 37.5313H75.156V31.8349C75.156 29.6462 75.1981 27.4621 75.156 25.2874C75.0999 23.2016 74.244 22.1493 72.7661 22.168C71.1994 22.168 70.0489 23.37 70.0021 25.3295C69.918 28.8371 69.9694 32.3447 69.9647 35.8663V37.4564H62.6689V16.5559Z" fill="#4387C9"/>
<path d="M181.89 37.5265H174.875V16.6213H179.771L180.884 18.2394C183.419 16.5184 185.973 15.3398 189.031 15.9712C192.604 16.7055 195.111 18.8755 195.321 22.5187C195.63 27.3872 195.401 32.2932 195.401 37.3862H188.25C188.157 36.8399 188.094 36.2887 188.063 35.7353C188.063 32.3821 188.063 29.0335 188.063 25.6849C188.04 23.4587 187.277 22.369 185.748 22.2007C183.976 22.0043 182.428 23.2623 182.208 25.409C181.969 27.724 181.974 30.0857 181.918 32.3961C181.857 34.0283 181.89 35.6652 181.89 37.5265Z" fill="#4589CA"/>
<path d="M16.3688 31.082V37.5406C13.5954 37.6575 10.8127 38.0551 8.14697 37.0729C5.4812 36.0908 4.05478 34.033 3.99866 31.1568C3.94253 28.2806 3.99866 25.236 3.99866 22.1587C2.92767 22.0885 1.99231 22.1587 1.06631 22.1306C0.794378 22.137 0.530696 22.0369 0.331496 21.8517C0.132296 21.6665 0.0133414 21.4108 0 21.1391C0.0613375 20.5593 0.340483 20.0244 0.781024 19.6425C3.39067 16.8598 9.95221 9.95223 11.0138 9.43311V16.4483H16.0928V22.0137C14.5308 22.0885 12.95 21.9763 11.1495 22.0651C11.1495 24.2913 11.0793 26.5642 11.1495 28.6454C11.2196 30.184 12.0848 31.0679 13.7077 31.082C14.5682 31.0866 15.4334 31.082 16.3688 31.082Z" fill="#4388C9"/>
<path d="M158.44 37.4705H151.256V8.88599H158.44V37.4705Z" fill="#488ACA"/>
<path d="M19.7598 37.4142V16.6727H24.5909L25.8302 18.4265C28.0049 16.6446 30.4322 15.8776 33.3645 16.6727V22.9957C32.7753 23.0378 32.1112 23.1126 31.4471 23.1266C28.0237 23.2062 27.0696 24.1649 27.0509 27.6491C27.0509 30.8387 27.0509 34.0282 27.0509 37.4002L19.7598 37.4142Z" fill="#4689CA"/>
<path d="M163.169 0H170.067V21.9809H163.169V0Z" fill="#4287C9"/>
<path d="M171.549 32.4241C171.526 35.3565 169.211 37.7182 166.475 37.62C163.875 37.5218 161.134 34.814 161.359 32.2745C161.606 29.4964 163.337 27.3358 166.76 27.3498C169.674 27.3638 171.573 29.4216 171.549 32.4241Z" fill="#AFDADE"/>
<path d="M119.726 19.3526C116.288 15.4334 111.186 14.8769 104.868 17.7718C103.306 15.4895 101.126 16.8364 99.1387 16.5605V45.0001H106.332V37.2647C113.244 39.1728 118.024 37.8025 120.745 33.3362C123.369 29.0475 122.93 23.0098 119.726 19.3526ZM110.419 31.6198C109.794 31.6335 109.172 31.5218 108.591 31.2912C108.01 31.0606 107.481 30.7157 107.035 30.2771C106.59 29.8385 106.237 29.3149 105.997 28.7374C105.757 28.1599 105.636 27.5402 105.639 26.9149C105.691 24.5344 108.029 22.2381 110.358 22.3036C111.573 22.3638 112.721 22.8777 113.575 23.7438C114.429 24.6099 114.927 25.7649 114.97 26.9804C114.98 27.5851 114.87 28.1858 114.646 28.7476C114.423 29.3095 114.089 29.8211 113.666 30.2529C113.242 30.6847 112.737 31.0279 112.18 31.2625C111.622 31.4972 111.024 31.6186 110.419 31.6198Z" fill="#4387C9"/>
<path d="M51.7395 17.4958C45.8328 14.7131 40.3936 15.4333 37.0685 19.446C33.8321 23.3511 33.6357 29.6601 36.6616 33.8412C37.9844 35.6981 39.899 37.0504 42.0913 37.6762C43.6687 38.1632 45.3318 38.3084 46.9697 38.1019C48.6076 37.8955 50.1827 37.3422 51.5899 36.4789C53.6757 38.3496 55.9159 37.302 58.1374 37.5265V16.8364C54.9151 15.8075 53.3156 15.9852 51.7395 17.4958ZM46.5436 31.615C45.9401 31.6257 45.3406 31.5153 44.7805 31.2904C44.2204 31.0655 43.711 30.7306 43.2824 30.3055C42.8539 29.8805 42.5149 29.3739 42.2854 28.8156C42.0559 28.2573 41.9406 27.6587 41.9463 27.0552C41.9513 25.7993 42.4517 24.5962 43.3388 23.7073C44.226 22.8184 45.4281 22.3156 46.6839 22.3082C49.0504 22.383 51.2532 24.6981 51.2344 27.0879C51.1955 28.3046 50.6837 29.4581 49.8078 30.3035C48.9319 31.1488 47.7609 31.6193 46.5436 31.615Z" fill="#4488CA"/>
<path d="M136.165 15.6953C129.388 15.6953 124.37 20.4703 124.342 26.9196C124.314 33.5186 129.112 38.1439 135.996 38.186C142.497 38.5602 147.964 34.0377 148.063 27.088C148.161 20.5405 143.04 15.686 136.165 15.6953ZM136.338 31.5964C133.644 31.5964 131.769 29.7257 131.764 27.0552C131.764 24.5438 133.892 22.2709 136.249 22.2709C138.714 22.2709 140.664 24.3988 140.655 27.074C140.641 29.6836 138.793 31.6245 136.338 31.6104V31.5964Z" fill="#4388C9"/>
</svg>
