<svg version="1.1" id="Layer_1" xmlns="http://www.w3.org/2000/svg" x="0" y="0" viewBox="0 0 92.9 82.6" xml:space="preserve"><style>.st1{fill:#295965}</style><path d="M88.2 56.7c.4.2.5.6.5.8 0 .2-.1.6-.5.8L49.1 77.8c-1.7.8-3.6.8-5.3 0L4.7 58.2c-.4-.2-.5-.6-.5-.8 0-.2.1-.6.5-.8l9.8-4.9-4.8-2.4-6.9 3.5C1 53.7 0 55.4 0 57.4s1.1 3.7 2.8 4.6l39.1 19.5c1.4.7 3 1.1 4.6 1.1s3.1-.4 4.6-1.1L90.2 62c1.8-.9 2.8-2.6 2.8-4.6s-1.1-3.7-2.8-4.6l-6.9-3.5-4.8 2.4 9.7 5z" fill="#00b4a4"/><path class="st1" d="M90.1 46c1.8-.9 2.8-2.6 2.8-4.6s-1.1-3.7-2.8-4.6l-6.9-3.5-4.8 2.4 9.8 4.9c.4.2.5.6.5.8s-.1.6-.5.8L49.1 61.7c-1.7.8-3.6.8-5.3 0L4.7 42.2c-.4-.2-.5-.6-.5-.8s.1-.6.5-.8l9.8-4.9-4.8-2.4-6.9 3.5C1 37.7 0 39.3 0 41.3s1.1 3.7 2.8 4.6l6.9 3.5 4.8 2.4 27.4 13.7c1.4.7 3 1.1 4.6 1.1s3.1-.4 4.6-1.1l27.4-13.7 4.8-2.4 6.8-3.4z"/><path class="st1" d="M14.5 35.7l27.4 13.7c1.4.7 3 1.1 4.6 1.1s3.1-.4 4.6-1.1l27.4-13.7 4.8-2.4 6.9-3.5c1.8-.9 2.8-2.6 2.8-4.6s-1.1-3.7-2.8-4.6L51 1c-2.9-1.4-6.3-1.4-9.1 0L2.8 20.6C1 21.5 0 23.1 0 25.1s1.1 3.7 2.8 4.6l6.9 3.5 4.8 2.5zm-9.8-9.8c-.4-.2-.5-.6-.5-.8s.1-.6.5-.8L43.8 4.9c.8-.4 1.7-.6 2.6-.6s1.8.2 2.6.6l39.2 19.5c.4.2.5.6.5.8s-.1.6-.5.8L49.1 45.6c-1.7.8-3.6.8-5.3 0L4.7 25.9z"/></svg>