<svg version="1.1" id="Layer_1" xmlns="http://www.w3.org/2000/svg" x="0" y="0" viewBox="0 0 107.6 114.5" xml:space="preserve"><style>.st0{fill:#295965}</style><g id="Camada_01"><path class="st0" d="M24.3 86.7h10.4v3.5H24.3v-3.5z"/><path class="st0" d="M102.4 79.8H90c-1.4 0-2.7.5-3.7 1.5l-5.4 5.4h-9.7c-2.9 0-5.2 2.3-5.2 5.2v6.9h-7.3c-.5-1.5-1.7-2.6-3.2-3.2V76.3h12.1c2.9 0 5.2-2.3 5.2-5.2v-3.5c0-2.3-1.5-4.2-3.5-4.9v-4.1c2-.7 3.5-2.6 3.5-4.9h8.7c9.6 0 17.4-7.8 17.4-17.4S91.1 19 81.5 19c-1.4 0-2.7.2-4 .5-3.8-7.7-11.6-12.6-20.3-12.6-7 0-13.6 3.2-17.8 8.7-.4 0-.9-.1-1.3-.1-5 0-9.6 2.7-12.1 7-.6-.1-1.2-.1-1.8-.1-8.6 0-15.6 7-15.6 15.6s7 15.6 15.6 15.6h10.4c0 2.3 1.5 4.2 3.5 4.9v4.1c-2 .7-3.5 2.6-3.5 4.9V71c0 2.9 2.3 5.2 5.2 5.2h12.1v19.4c-1.5.5-2.6 1.7-3.2 3.2h-7.3V85c0-2.9-2.3-5.2-5.2-5.2H24c-1.4 0-2.7.5-3.7 1.5l-5.4 5.4H5.2C2.3 86.7 0 89 0 91.9v17.4c0 2.9 2.3 5.2 5.2 5.2h31.2c2.9 0 5.2-2.3 5.2-5.2v-6.9h7.3c.7 2 2.6 3.5 4.9 3.5 2.3 0 4.2-1.5 4.9-3.5H66v6.9c0 2.9 2.3 5.2 5.2 5.2h31.2c2.9 0 5.2-2.3 5.2-5.2V85c0-2.9-2.4-5.2-5.2-5.2zM65.9 58.9v3.5H41.6v-3.5h24.3zm3.5-5.2c0 1-.8 1.7-1.7 1.7H39.9c-1 0-1.7-.8-1.7-1.7v-3.5c0-1 .8-1.7 1.7-1.7h27.8c1 0 1.7.8 1.7 1.7v3.5zm-27.8-8.6v-3.5h24.3v3.5H41.6zm26.1-7H39.9c-1 0-1.7-.8-1.7-1.7v-3.5c0-1 .8-1.7 1.7-1.7h27.8c1 0 1.7.8 1.7 1.7v3.5c0 .9-.8 1.7-1.7 1.7zM24.3 50.3c-6.7 0-12.1-5.4-12.1-12.1S17.6 26 24.3 26c.8 0 1.6.1 2.4.2l1.4.3.6-1.3c1.7-3.8 5.4-6.2 9.5-6.2.5 0 1.1.1 1.8.2l1.1.2.6-.9c3.6-5.1 9.4-8.1 15.6-8.1 7.8 0 14.7 4.7 17.7 11.9l.6 1.5 1.5-.5c1.5-.5 3-.7 4.5-.7 7.7 0 13.9 6.2 13.9 13.9s-6.3 13.8-14 13.8h-8.7c0-2.3-1.5-4.2-3.5-4.9v-4.1c2-.7 3.5-2.6 3.5-4.9v-3.5c0-2.9-2.3-5.2-5.2-5.2H39.9c-2.9 0-5.2 2.3-5.2 5.2v3.5c0 2.3 1.5 4.2 3.5 4.9v4.1c-2 .7-3.5 2.6-3.5 4.9H24.3zm13.8 20.8v-3.5c0-1 .8-1.7 1.7-1.7h27.8c1 0 1.7.8 1.7 1.7v3.5c0 1-.8 1.7-1.7 1.7H39.9c-1 0-1.8-.8-1.8-1.7zM5.2 90.2h11.1l6.4-6.4c.3-.3.8-.5 1.2-.5h12.4c1 0 1.7.8 1.7 1.7v8.7H3.4V92c0-1 .8-1.8 1.8-1.8zM36.4 111H5.2c-1 0-1.7-.8-1.7-1.7V97.1h34.7v12.1c-.1 1-.8 1.8-1.8 1.8zm17.4-8.7c-1 0-1.7-.8-1.7-1.7 0-1 .8-1.7 1.7-1.7s1.7.8 1.7 1.7c0 1-.8 1.7-1.7 1.7zm17.3-12.1h11.1l6.4-6.4c.3-.3.8-.5 1.2-.5h12.4c1 0 1.7.8 1.7 1.7v8.7H69.4V92c0-1 .8-1.8 1.7-1.8zm31.3 20.8H71.1c-1 0-1.7-.8-1.7-1.7V97.1h34.7v12.1c0 1-.8 1.8-1.7 1.8z"/><path class="st0" d="M90.2 86.7h10.4v3.5H90.2v-3.5zM92 36.4C92 30.7 87.3 26 81.6 26v3.5c3.8 0 6.9 3.1 6.9 6.9s-3.1 6.9-6.9 6.9v3.5c5.7 0 10.4-4.7 10.4-10.4zm-76.4 1.7h3.5c0-2.9 2.3-5.2 5.2-5.2v-3.5c-4.8 0-8.7 3.9-8.7 8.7zm41.6-20.8c3.2 0 6.3 1.3 8.6 3.6l2.5-2.5c-2.9-3-6.9-4.6-11-4.6s-8.1 1.6-11 4.6l2.5 2.5c2.1-2.3 5.2-3.6 8.4-3.6z"/><path d="M6.9 57.9v16.6h3.5V57.9l4 4 2.5-2.5-8.2-8.2-8.2 8.2L3 61.9l3.9-4zm0 20.1h3.5v3.5H6.9V78zm93.7-24.3h-3.4v16.6l-4-4-2.5 2.5 8.2 8.2 8.2-8.2-2.5-2.5-4 4V53.7zm-3.4-6.9h3.5v3.5h-3.5v-3.5z" fill="#00b4a4"/></g></svg>