<svg version="1.1" id="Layer_1" xmlns="http://www.w3.org/2000/svg" x="0" y="0" viewBox="0 0 111.1 121.2" xml:space="preserve"><style>.st0{fill:#00b4a4}</style><g id="Camada_01"><path class="st0" d="M31.1 17.8c-13.7 0-24.9 11.1-24.9 24.8s11.2 24.8 24.9 24.8 24.8-11.1 24.8-24.8-11.2-24.8-24.8-24.8zm0 46.3c-11.8 0-21.5-9.6-21.5-21.5s9.6-21.5 21.5-21.5c11.8 0 21.5 9.6 21.5 21.5s-9.7 21.5-21.5 21.5z"/><path class="st0" d="M38.5 39c.9 0 1.7-.7 1.7-1.7v-1.8c0-3.9-3.1-7-7-7h-.1v-3.7c0-.9-.7-1.7-1.7-1.7-.9 0-1.7.7-1.7 1.7v3.7c-4 .4-7.1 3.8-7.1 7.9 0 4.4 3.5 7.9 7.9 7.9h1.8c2.5 0 4.6 2 4.6 4.6s-2 4.6-4.6 4.6h-2.7c-2 0-3.7-1.6-3.7-3.7 0-.9-.7-1.7-1.7-1.7-.9 0-1.7.7-1.7 1.7 0 3.9 3.1 7 7 7h.1v3.7c0 .9.7 1.7 1.7 1.7s1.7-.7 1.7-1.7v-3.7c4-.4 7.1-3.8 7.1-7.9 0-4.4-3.5-7.9-7.9-7.9h-1.8c-2.5 0-4.6-2-4.6-4.6s2-4.6 4.6-4.6h2.7c2 0 3.7 1.6 3.7 3.7v1.8c0 .9.8 1.7 1.7 1.7z"/><path d="M57.8 81.7c.9 0 1.7-.7 1.7-1.7V69.3c0-.9-.7-1.7-1.7-1.7H11.5c-.9 0-1.7.7-1.7 1.7v9H7.9c-.9 0-1.7.7-1.7 1.7v10.7c0 .9.7 1.7 1.7 1.7h1.9v7.3H7.9c-.9 0-1.7.7-1.7 1.7v10.7c0 .9.7 1.7 1.7 1.7h46.3c.9 0 1.7-.7 1.7-1.7v-9h1.9c.9 0 1.7-.7 1.7-1.7V90.7c0-.9-.7-1.7-1.7-1.7h-1.9v-7.3h1.9zM9.6 89v-7.3h42.9V89H9.6zm42.9 21.4H9.6v-7.3h42.9v7.3zm3.6-18v7.3h-43v-7.3h43zm-43-14.1V71H56v7.3H13.1zm97.6-47.4L85.8.6c-.7-.8-1.9-.8-2.6 0L58.3 30.9c-.9 1.1-.1 2.7 1.3 2.7h10.8v51.7c0 .9.7 1.7 1.7 1.7H97c.9 0 1.7-.7 1.7-1.7v-7c0-.9-.7-1.7-1.7-1.7-.9 0-1.7.7-1.7 1.7v5.3H73.7V31.9c0-.9-.7-1.7-1.7-1.7h-8.9l21.4-26 21.4 26H97c-.9 0-1.7.7-1.7 1.7v38.5c0 .9.7 1.7 1.7 1.7s1.7-.7 1.7-1.7V33.6h10.7c1.4 0 2.2-1.6 1.3-2.7z" fill="#295965"/><path class="st0" d="M96.9 92.6H72c-.9 0-1.7.7-1.7 1.7 0 .9.7 1.7 1.7 1.7h24.9c.9 0 1.7-.7 1.7-1.7s-.8-1.7-1.7-1.7zm0 8.9H72c-.9 0-1.7.7-1.7 1.7s.7 1.7 1.7 1.7h24.9c.9 0 1.7-.7 1.7-1.7s-.8-1.7-1.7-1.7zm0 8.9H72c-.9 0-1.7.7-1.7 1.7s.7 1.7 1.7 1.7h24.9c.9 0 1.7-.7 1.7-1.7s-.8-1.7-1.7-1.7z"/></g></svg>