<svg version="1.1" id="Layer_1" xmlns="http://www.w3.org/2000/svg" x="0" y="0" viewBox="0 0 119.2 100.8" xml:space="preserve"><style>.st0{fill:#00b4a4}</style><g id="Camada_01"><path class="st0" d="M97 10.3l-1.3-8.9c-.1-.5-.3-.9-.7-1.1-.4-.3-.8-.4-1.3-.3l-9.9 1.5c-.9.1-1.6 1-1.4 1.9.1.9 1 1.6 1.9 1.4l5.7-.9c-7.7 9.5-15.9 17.6-24.6 24C57.9 33.5 50 38 42.1 41.1c-13.5 5.3-22.7 5-22.8 5-.9 0-1.7.7-1.8 1.6 0 .9.7 1.7 1.6 1.8h.7c2.4 0 11.2-.4 23.3-5.1 8.2-3.2 16.4-7.8 24.2-13.6 9-6.7 17.5-15 25.4-24.9l.7 4.9c.1.8.8 1.5 1.7 1.5h.2c1.1-.2 1.8-1.1 1.7-2z"/><path d="M116.1 91.5h-13.7c1.1-.8 2.2-1.6 3.2-2.6 3.9-3.9 6-9 6-14.5s-2.1-10.6-6-14.5a20.5 20.5 0 00-4.5-3.4v-6.9c0-.9-.8-1.7-1.7-1.7-.9 0-1.7.8-1.7 1.7V55c-4.7-1.6-9.7-1.4-14.2.4V34.6c0-.2.2-.4.4-.4h13.4c.2 0 .4.2.4.4v4.2c0 .9.8 1.7 1.7 1.7.9 0 1.7-.8 1.7-1.7v-4.2c0-2.1-1.7-3.8-3.8-3.8H83.8c-2.1 0-3.8 1.7-3.8 3.8v22.6c-1.2.8-2.3 1.7-3.4 2.7-3.9 3.9-6 9-6 14.5s2.1 10.6 6 14.5c1 1 2 1.9 3.2 2.6H69V50c0-2.1-1.7-3.8-3.8-3.8H51.8c-2.1 0-3.8 1.7-3.8 3.8v41.5H37V64c0-2.1-1.7-3.8-3.8-3.8H19.8c-2.1 0-3.8 1.7-3.8 3.8v27.6H9V4.1C9 2.4 7.6 1 5.9 1H3.2C1.5 1 .1 2.4.1 4.1v12.1c0 .9.8 1.7 1.7 1.7s1.7-.8 1.7-1.7V4.4h2.2v87.4c0 1.7 1.4 3.1 3.1 3.1h107.1v2.6H3.4V26.9c0-.9-.8-1.7-1.7-1.7S0 26 0 26.9v70.8c0 1.7 1.4 3.1 3.1 3.1h113c1.7 0 3.1-1.4 3.1-3.1v-3.1c.1-1.7-1.3-3.1-3.1-3.1zm-82.5 0H19.4V64c0-.2.2-.4.4-.4h13.4c.2 0 .4.2.4.4v27.5zm17.8 0V50c0-.2.2-.4.4-.4h13.4c.2 0 .4.2.4.4v41.5H51.4zm47.2-1.7c-1.7.8-3.6 1.4-5.5 1.6h-4.3c-.2 0-.3 0-.5-.1h-.1c-2-.3-3.9-1-5.7-2-1.3-.7-2.5-1.6-3.5-2.7-3.2-3.2-5-7.5-5-12.1s1.8-8.9 5-12.1c1.2-1.2 2.6-2.2 4.1-3 0 0 .1 0 .1-.1 2.5-1.3 5.2-1.9 7.9-1.9 2.2 0 4.3.4 6.4 1.2h.1l.6.3c.1 0 .2.1.2.1 1.7.8 3.3 1.9 4.7 3.3 6.7 6.7 6.7 17.5 0 24.2-1.3 1.4-2.8 2.5-4.5 3.3z" fill="#295965"/><path class="st0" d="M91.9 72.8v-6.1c2.1.1 2.9 1.1 3.6 1.1.9 0 1.3-1.1 1.3-1.7 0-1.5-2.9-2.1-4.9-2.1v-.8c0-.4-.4-.7-.9-.7s-.9.3-.9.7v.9c-2.8.3-5.7 1.8-5.7 5.5 0 3.8 3 4.9 5.7 5.8v7c-3-.2-3.8-2.3-4.8-2.3-.7 0-1.4 1-1.4 1.7 0 1.5 2.5 3.5 6.2 3.5v.9c0 .4.4.7.9.7.4 0 .9-.3.9-.7v-1c3.2-.4 5.4-2.5 5.4-6.1 0-4-2.8-5.3-5.4-6.3zm-1.6-.6c-1.6-.6-2.9-1.2-2.9-2.9 0-1.6 1.2-2.3 2.9-2.5v5.4zm1.4 10.2v-6.3c1.5.6 2.6 1.5 2.6 3.3s-1 2.7-2.6 3z"/></g></svg>