<svg xmlns="http://www.w3.org/2000/svg" viewBox="0 0 124 133.9"><style/><path d="M100.8 11.2H23.2c-9.4 0-17 7.6-17 17v77.6c0 9.4 7.6 17 17 17h77.6c9.4 0 17-7.6 17-17V28.2c0-9.4-7.6-17-17-17zm-60.3 92c0 1.4-1.1 2.6-2.6 2.6H27c-1.4 0-2.6-1.2-2.6-2.6V56.5c0-1.4 1.1-2.6 2.6-2.6h11c1.4 0 2.6 1.2 2.6 2.6v46.7zm-8.1-56.4c-5 .1-9.3-4.1-9.3-9.4 0-5.1 4.2-9.3 9.4-9.3 5.1 0 9.3 4.2 9.3 9.4 0 5.4-4.5 9.4-9.4 9.3zm68.5 57.9c0 .6-.5 1.1-1.1 1.1h-14c-.6 0-1.1-.5-1.1-1.1V75.9c0-2.5-1-4.8-2.7-6.4-1.6-1.7-3.9-2.7-6.5-2.6-5 0-8.9 4.2-8.9 9.1v28.7c0 .6-.5 1.1-1.1 1.1h-14c-.6 0-1.1-.5-1.1-1.1V55c0-.6.5-1.1 1.1-1.1h13.7c.6 0 1.1.5 1.1 1.1v5.7h.1c.3-.5.6-.9.9-1.4 2.9-4.1 7.6-6.8 12.9-6.8H83c9.8 0 17.7 7.9 17.7 17.7v34.5z" fill="#0084b1" id="Camada_01"/></svg>