<svg version="1.1" id="Layer_1" xmlns="http://www.w3.org/2000/svg" x="0" y="0" viewBox="0 0 113.8 117.5" xml:space="preserve"><style>.st0{fill:#295965}.st1{fill:#00b4a4}</style><g id="Camada_01"><g id="surface1_1_"><path class="st0" d="M7.7 117.5h90.9c4.2 0 7.6-3.4 7.6-7.6v-5.7c0-1-.8-1.9-1.9-1.9h-3.8V72h-3.8v30.3h-3.8V72h-3.8v30.3H64.9c-2 0-3.9 1.1-4.8 2.9-.3.5-.8.9-1.4.8H47.9c-.6 0-1.1-.3-1.4-.8-.9-1.8-2.7-2.9-4.8-2.9H17.1V55c0-1 .8-1.9 1.9-1.9h34.1v-3.8H19c-3.1 0-5.7 2.5-5.7 5.7v47.3H9.5V51.2c0-3.1 2.5-5.7 5.7-5.7h37.9v-3.8H15.2c-5.2 0-9.5 4.2-9.5 9.5v51.1H1.9c-1 0-1.9.8-1.9 1.9v5.7c.1 4.2 3.5 7.6 7.7 7.6zm-3.8-11.4h37.9c.6 0 1.1.3 1.4.8.9 1.8 2.7 2.9 4.8 2.9h10.9c2 0 3.9-1.1 4.8-2.9.3-.5.8-.8 1.4-.8h37.4v3.8c0 2.1-1.7 3.8-3.8 3.8h-91c-2.1 0-3.8-1.7-3.8-3.8v-3.8z"/><path class="st0" d="M24.7 73.9V89c0 1 .8 1.9 1.9 1.9h53c1 0 1.9-.8 1.9-1.9V73.9c0-1-.8-1.9-1.9-1.9h-53c-1.1 0-1.9.9-1.9 1.9zm3.8 1.9h49.2v11.4H28.5V75.8z"/><path class="st1" d="M32.3 79.6h3.8v3.8h-3.8v-3.8zm7.5 0h3.8v3.8h-3.8v-3.8zm7.6 0h3.8v3.8h-3.8v-3.8zm7.6 0h3.8v3.8H55v-3.8zm53-47.2v-5.7C108 14.2 97.8 4 85.3 4S62.6 14.1 62.6 26.6v5.7c-3.2.3-5.7 3.1-5.7 6.3v23.2c0 3.5 2.9 6.4 6.4 6.4h44.1c3.5 0 6.4-2.9 6.4-6.4V38.7c-.1-3.3-2.6-6-5.8-6.3zm-41.7-5.8c0-10.5 8.5-18.9 18.9-18.9s18.9 8.5 18.9 18.9v5.7h-3.8v-5.7c0-8.4-6.8-15.1-15.1-15.1s-15.1 6.8-15.1 15.1v5.7h-3.8v-5.7zm7.6 5.7v-5.7c0-6.3 5.1-11.4 11.4-11.4s11.4 5.1 11.4 11.4v5.7H73.9zm36 29.6c0 1.4-1.2 2.6-2.6 2.6H63.2c-1.4 0-2.6-1.2-2.6-2.6V38.7c0-1.4 1.2-2.6 2.6-2.6h44.1c1.4 0 2.6 1.2 2.6 2.6v23.2z"/><path class="st1" d="M85.3 43.6c-2.8 0-5.1 2-5.6 4.7s1.1 5.4 3.7 6.3v4.1h3.8v-4.1c2.6-.9 4.2-3.6 3.7-6.3s-2.9-4.7-5.6-4.7zm0 7.6c-1 0-1.9-.8-1.9-1.9 0-1 .8-1.9 1.9-1.9s1.9.8 1.9 1.9-.9 1.9-1.9 1.9z"/><path class="st0" d="M34.2 34.2h3.7V38h-3.8l.1-3.8zm0-7.6h3.7v3.8h-3.8l.1-3.8zm0-7.6h3.7v3.8h-3.8l.1-3.8zm0-7.5h3.7v3.8h-3.8l.1-3.8zm7.5 0h3.8v3.8h-3.8v-3.8zm7.6 0h3.8v3.8h-3.8v-3.8zm7.6 0h3.8v3.8h-3.8v-3.8z"/></g></g></svg>